<svg width="68" height="68" viewBox="0 0 68 68" fill="none" xmlns="http://www.w3.org/2000/svg">
<circle cx="34" cy="34" r="34" fill="#3574B2"/>
<path d="M34.8325 24.0461C34.8325 29.5271 39.2757 33.9703 44.7567 33.9703H50.0229C51.7538 33.9703 53.1569 35.3734 53.1569 37.1043V50.8256C53.1569 52.5564 51.7538 53.9596 50.0229 53.9596H36.0307C33.7229 53.9596 31.903 52.0668 31.4135 49.8115C29.839 42.5575 24.1497 37.1477 16.3809 36.9508C15.5317 36.9508 14.8433 36.2623 14.8433 35.4131V15.3073C14.8433 13.5765 16.2464 12.1733 17.9772 12.1733H31.6985C33.4294 12.1733 34.8325 13.5765 34.8325 15.3073V24.0461Z" fill="white"/>
<path d="M26.1515 48.3054C26.1515 51.4281 23.6201 53.9596 20.4974 53.9596C17.3747 53.9596 14.8433 51.4281 14.8433 48.3054C14.8433 45.1827 17.3747 42.6513 20.4974 42.6513C23.6201 42.6513 26.1515 45.1827 26.1515 48.3054Z" fill="white"/>
</svg>
