<svg width="103" height="103" viewBox="0 0 103 103" fill="none" xmlns="http://www.w3.org/2000/svg">
<rect width="102.823" height="102.823" rx="18" fill="#3574B2"/>
<path d="M52.906 37.1844C52.906 45.5791 59.7181 52.3844 68.1213 52.3844H76.1952C78.8488 52.3844 81 54.5334 81 57.1844V78.2C81 80.851 78.8488 83 76.1952 83H54.743C51.2048 83 48.4147 80.101 47.6642 76.6468C45.2502 65.5365 36.5276 57.2508 24.6169 56.9492C23.315 56.9492 22.2596 55.8948 22.2596 54.5942V23.8C22.2596 21.149 24.4108 19 27.0644 19H48.1012C50.7548 19 52.906 21.149 52.906 23.8V37.1844Z" fill="white"/>
<path d="M22 62.4579C22 62.3154 22.1156 62.2 22.2581 62.2C33.6146 62.2 42.8209 71.397 42.8209 82.7422C42.8209 82.8846 42.7054 83 42.5628 83H27.5C24.4624 83 22 80.851 22 78.2V62.4579Z" fill="white"/>
<path d="M76 61.214C76 58.8867 73.9213 57 71.3723 57C61.2526 57 53 64.4903 53 73.73C53 76.0883 55.0938 78 57.6767 78H71.9595C74.191 78 76 76.3483 76 74.3108V61.214Z" fill="#3574B2"/>
</svg>
