<svg width="2200" height="1399" viewBox="0 0 2200 1399" fill="none" xmlns="http://www.w3.org/2000/svg">
<rect x="2" y="2" width="2196" height="1395" rx="40" fill="#141416"/>
<rect x="2" y="2" width="2196" height="1395" rx="40" stroke="#414141" stroke-width="4"/>
<rect x="100" y="100" width="2000" height="1199" rx="38" fill="#F5F6F8"/>
<rect x="543" y="140" width="1114" height="1119" rx="25" fill="white"/>
<rect width="96.4444" height="59.2222" transform="translate(570.777 167.777)" fill="#ECECEC"/>
<path d="M595.444 204.889C595.281 204.889 595.156 204.844 595.067 204.755C594.978 204.652 594.933 204.526 594.933 204.378V189.844C594.933 189.696 594.978 189.578 595.067 189.489C595.156 189.385 595.281 189.333 595.444 189.333H596.622C596.77 189.333 596.889 189.385 596.978 189.489C597.067 189.578 597.111 189.696 597.111 189.844V202.955H604.511C604.674 202.955 604.8 203.007 604.889 203.111C604.978 203.2 605.022 203.326 605.022 203.489V204.378C605.022 204.526 604.978 204.652 604.889 204.755C604.8 204.844 604.674 204.889 604.511 204.889H595.444ZM611.661 205.111C610.535 205.111 609.594 204.896 608.839 204.466C608.083 204.037 607.505 203.444 607.105 202.689C606.705 201.918 606.483 201.044 606.439 200.066C606.424 199.815 606.416 199.496 606.416 199.111C606.416 198.711 606.424 198.392 606.439 198.155C606.483 197.163 606.705 196.289 607.105 195.533C607.52 194.778 608.105 194.185 608.861 193.755C609.616 193.326 610.55 193.111 611.661 193.111C612.772 193.111 613.705 193.326 614.461 193.755C615.216 194.185 615.794 194.778 616.194 195.533C616.609 196.289 616.839 197.163 616.883 198.155C616.898 198.392 616.905 198.711 616.905 199.111C616.905 199.496 616.898 199.815 616.883 200.066C616.839 201.044 616.616 201.918 616.216 202.689C615.816 203.444 615.239 204.037 614.483 204.466C613.727 204.896 612.787 205.111 611.661 205.111ZM611.661 203.4C612.579 203.4 613.313 203.111 613.861 202.533C614.409 201.941 614.705 201.081 614.75 199.955C614.764 199.733 614.772 199.452 614.772 199.111C614.772 198.77 614.764 198.489 614.75 198.266C614.705 197.141 614.409 196.289 613.861 195.711C613.313 195.118 612.579 194.822 611.661 194.822C610.742 194.822 610.002 195.118 609.439 195.711C608.89 196.289 608.602 197.141 608.572 198.266C608.557 198.489 608.55 198.77 608.55 199.111C608.55 199.452 608.557 199.733 608.572 199.955C608.602 201.081 608.89 201.941 609.439 202.533C610.002 203.111 610.742 203.4 611.661 203.4ZM624.421 209.778C623.414 209.778 622.584 209.644 621.932 209.378C621.295 209.111 620.792 208.785 620.421 208.4C620.066 208.029 619.806 207.652 619.643 207.266C619.495 206.896 619.414 206.6 619.399 206.378C619.384 206.229 619.429 206.103 619.532 206C619.651 205.896 619.777 205.844 619.91 205.844H620.977C621.11 205.844 621.221 205.874 621.31 205.933C621.399 205.992 621.473 206.118 621.532 206.311C621.621 206.533 621.755 206.778 621.932 207.044C622.11 207.326 622.384 207.563 622.755 207.755C623.125 207.963 623.643 208.066 624.31 208.066C625.006 208.066 625.592 207.97 626.066 207.778C626.54 207.6 626.895 207.274 627.132 206.8C627.384 206.341 627.51 205.703 627.51 204.889V203.378C627.155 203.837 626.688 204.222 626.11 204.533C625.532 204.829 624.806 204.978 623.932 204.978C623.103 204.978 622.392 204.837 621.799 204.555C621.206 204.259 620.717 203.866 620.332 203.378C619.962 202.874 619.68 202.303 619.488 201.666C619.31 201.029 619.206 200.363 619.177 199.666C619.162 199.252 619.162 198.844 619.177 198.444C619.206 197.748 619.31 197.081 619.488 196.444C619.68 195.807 619.962 195.237 620.332 194.733C620.717 194.229 621.206 193.837 621.799 193.555C622.392 193.259 623.103 193.111 623.932 193.111C624.821 193.111 625.555 193.281 626.132 193.622C626.725 193.948 627.206 194.348 627.577 194.822V193.866C627.577 193.718 627.621 193.592 627.71 193.489C627.814 193.385 627.94 193.333 628.088 193.333H629.11C629.258 193.333 629.384 193.385 629.488 193.489C629.592 193.592 629.643 193.718 629.643 193.866V204.644C629.643 205.637 629.473 206.518 629.132 207.289C628.806 208.059 628.258 208.666 627.488 209.111C626.732 209.555 625.71 209.778 624.421 209.778ZM624.377 203.2C625.117 203.2 625.71 203.029 626.155 202.689C626.614 202.348 626.947 201.918 627.155 201.4C627.377 200.881 627.495 200.355 627.51 199.822C627.525 199.615 627.532 199.363 627.532 199.066C627.532 198.755 627.525 198.496 627.51 198.289C627.495 197.755 627.377 197.229 627.155 196.711C626.947 196.192 626.614 195.763 626.155 195.422C625.71 195.081 625.117 194.911 624.377 194.911C623.636 194.911 623.043 195.081 622.599 195.422C622.155 195.748 621.836 196.185 621.643 196.733C621.451 197.266 621.34 197.844 621.31 198.466C621.295 198.852 621.295 199.244 621.31 199.644C621.34 200.266 621.451 200.852 621.643 201.4C621.836 201.933 622.155 202.37 622.599 202.711C623.043 203.037 623.636 203.2 624.377 203.2ZM637.681 205.111C636.555 205.111 635.614 204.896 634.859 204.466C634.103 204.037 633.525 203.444 633.125 202.689C632.725 201.918 632.503 201.044 632.459 200.066C632.444 199.815 632.436 199.496 632.436 199.111C632.436 198.711 632.444 198.392 632.459 198.155C632.503 197.163 632.725 196.289 633.125 195.533C633.54 194.778 634.125 194.185 634.881 193.755C635.636 193.326 636.57 193.111 637.681 193.111C638.792 193.111 639.725 193.326 640.481 193.755C641.236 194.185 641.814 194.778 642.214 195.533C642.629 196.289 642.859 197.163 642.903 198.155C642.918 198.392 642.925 198.711 642.925 199.111C642.925 199.496 642.918 199.815 642.903 200.066C642.859 201.044 642.636 201.918 642.236 202.689C641.836 203.444 641.259 204.037 640.503 204.466C639.747 204.896 638.807 205.111 637.681 205.111ZM637.681 203.4C638.599 203.4 639.333 203.111 639.881 202.533C640.429 201.941 640.725 201.081 640.77 199.955C640.784 199.733 640.792 199.452 640.792 199.111C640.792 198.77 640.784 198.489 640.77 198.266C640.725 197.141 640.429 196.289 639.881 195.711C639.333 195.118 638.599 194.822 637.681 194.822C636.762 194.822 636.021 195.118 635.459 195.711C634.91 196.289 634.621 197.141 634.592 198.266C634.577 198.489 634.57 198.77 634.57 199.111C634.57 199.452 634.577 199.733 634.592 199.955C634.621 201.081 634.91 201.941 635.459 202.533C636.021 203.111 636.762 203.4 637.681 203.4Z" fill="#4D4D4D"/>
<path d="M577.002 279.777C576.819 279.777 576.669 279.719 576.552 279.602C576.436 279.486 576.377 279.336 576.377 279.152V266.202H571.927C571.744 266.202 571.594 266.144 571.477 266.027C571.361 265.894 571.302 265.744 571.302 265.577V262.902C571.302 262.719 571.361 262.569 571.477 262.452C571.594 262.336 571.744 262.277 571.927 262.277H585.377C585.561 262.277 585.711 262.336 585.827 262.452C585.944 262.569 586.002 262.719 586.002 262.902V265.577C586.002 265.744 585.944 265.894 585.827 266.027C585.711 266.144 585.561 266.202 585.377 266.202H580.927V279.152C580.927 279.336 580.869 279.486 580.752 279.602C580.636 279.719 580.486 279.777 580.302 279.777H577.002ZM591.802 280.027C589.835 280.027 588.269 279.494 587.102 278.427C585.935 277.361 585.327 275.777 585.277 273.677C585.277 273.561 585.277 273.411 585.277 273.227C585.277 273.044 585.277 272.902 585.277 272.802C585.327 271.486 585.619 270.361 586.152 269.427C586.702 268.477 587.452 267.761 588.402 267.277C589.369 266.777 590.494 266.527 591.777 266.527C593.244 266.527 594.452 266.819 595.402 267.402C596.369 267.986 597.094 268.777 597.577 269.777C598.06 270.777 598.302 271.919 598.302 273.202V273.802C598.302 273.986 598.235 274.136 598.102 274.252C597.985 274.369 597.844 274.427 597.677 274.427H589.677C589.677 274.444 589.677 274.469 589.677 274.502C589.677 274.536 589.677 274.569 589.677 274.602C589.694 275.086 589.777 275.527 589.927 275.927C590.077 276.327 590.31 276.644 590.627 276.877C590.944 277.111 591.327 277.227 591.777 277.227C592.11 277.227 592.385 277.177 592.602 277.077C592.835 276.961 593.027 276.836 593.177 276.702C593.327 276.552 593.444 276.427 593.527 276.327C593.677 276.161 593.794 276.061 593.877 276.027C593.977 275.977 594.127 275.952 594.327 275.952H597.427C597.594 275.952 597.727 276.002 597.827 276.102C597.944 276.186 597.994 276.311 597.977 276.477C597.96 276.761 597.819 277.102 597.552 277.502C597.285 277.902 596.894 278.302 596.377 278.702C595.877 279.086 595.244 279.402 594.477 279.652C593.71 279.902 592.819 280.027 591.802 280.027ZM589.677 271.952H593.902V271.902C593.902 271.369 593.819 270.902 593.652 270.502C593.502 270.102 593.26 269.794 592.927 269.577C592.61 269.361 592.227 269.252 591.777 269.252C591.327 269.252 590.944 269.361 590.627 269.577C590.327 269.794 590.094 270.102 589.927 270.502C589.76 270.902 589.677 271.369 589.677 271.902V271.952ZM605.996 280.027C604.913 280.027 603.988 279.911 603.221 279.677C602.471 279.427 601.854 279.127 601.371 278.777C600.904 278.427 600.554 278.069 600.321 277.702C600.088 277.319 599.963 276.994 599.946 276.727C599.929 276.544 599.988 276.394 600.121 276.277C600.254 276.144 600.396 276.077 600.546 276.077H603.396C603.446 276.077 603.488 276.086 603.521 276.102C603.554 276.119 603.604 276.152 603.671 276.202C603.888 276.319 604.104 276.469 604.321 276.652C604.538 276.819 604.788 276.969 605.071 277.102C605.354 277.236 605.696 277.302 606.096 277.302C606.563 277.302 606.954 277.211 607.271 277.027C607.588 276.844 607.746 276.569 607.746 276.202C607.746 275.936 607.671 275.719 607.521 275.552C607.371 275.369 607.063 275.194 606.596 275.027C606.146 274.861 605.463 274.694 604.546 274.527C603.679 274.327 602.921 274.069 602.271 273.752C601.621 273.419 601.121 272.994 600.771 272.477C600.421 271.944 600.246 271.302 600.246 270.552C600.246 269.886 600.463 269.244 600.896 268.627C601.329 268.011 601.963 267.511 602.796 267.127C603.629 266.727 604.654 266.527 605.871 266.527C606.838 266.527 607.671 266.644 608.371 266.877C609.088 267.094 609.688 267.377 610.171 267.727C610.671 268.077 611.046 268.436 611.296 268.802C611.546 269.169 611.679 269.502 611.696 269.802C611.713 269.969 611.663 270.119 611.546 270.252C611.429 270.369 611.296 270.427 611.146 270.427H608.546C608.479 270.427 608.413 270.419 608.346 270.402C608.279 270.369 608.221 270.336 608.171 270.302C607.971 270.202 607.771 270.069 607.571 269.902C607.371 269.736 607.138 269.586 606.871 269.452C606.604 269.319 606.271 269.252 605.871 269.252C605.421 269.252 605.071 269.352 604.821 269.552C604.571 269.752 604.446 270.011 604.446 270.327C604.446 270.544 604.513 270.744 604.646 270.927C604.796 271.111 605.088 271.277 605.521 271.427C605.971 271.577 606.663 271.744 607.596 271.927C608.746 272.111 609.663 272.411 610.346 272.827C611.029 273.227 611.513 273.702 611.796 274.252C612.079 274.786 612.221 275.352 612.221 275.952C612.221 276.752 611.979 277.461 611.496 278.077C611.029 278.694 610.329 279.177 609.396 279.527C608.463 279.861 607.329 280.027 605.996 280.027ZM621.041 279.777C619.974 279.777 619.049 279.611 618.266 279.277C617.499 278.927 616.908 278.394 616.491 277.677C616.074 276.944 615.866 276.002 615.866 274.852V270.052H613.916C613.733 270.052 613.574 269.994 613.441 269.877C613.324 269.761 613.266 269.611 613.266 269.427V267.402C613.266 267.219 613.324 267.069 613.441 266.952C613.574 266.836 613.733 266.777 613.916 266.777H615.866V262.652C615.866 262.469 615.924 262.319 616.041 262.202C616.174 262.086 616.324 262.027 616.491 262.027H619.391C619.574 262.027 619.724 262.086 619.841 262.202C619.958 262.319 620.016 262.469 620.016 262.652V266.777H623.141C623.324 266.777 623.474 266.836 623.591 266.952C623.708 267.069 623.766 267.219 623.766 267.402V269.427C623.766 269.611 623.708 269.761 623.591 269.877C623.474 269.994 623.324 270.052 623.141 270.052H620.016V274.502C620.016 275.069 620.124 275.519 620.341 275.852C620.558 276.186 620.924 276.352 621.441 276.352H623.366C623.549 276.352 623.699 276.411 623.816 276.527C623.933 276.644 623.991 276.794 623.991 276.977V279.152C623.991 279.336 623.933 279.486 623.816 279.602C623.699 279.719 623.549 279.777 623.366 279.777H621.041Z" fill="#1D1D1D"/>
<path d="M576.622 325.889C576.474 325.889 576.348 325.844 576.244 325.755C576.155 325.652 576.111 325.526 576.111 325.378V312.311H571.844C571.696 312.311 571.57 312.266 571.466 312.178C571.377 312.074 571.333 311.948 571.333 311.8V310.866C571.333 310.703 571.377 310.578 571.466 310.489C571.57 310.385 571.696 310.333 571.844 310.333H582.555C582.718 310.333 582.844 310.385 582.933 310.489C583.037 310.578 583.088 310.703 583.088 310.866V311.8C583.088 311.948 583.037 312.074 582.933 312.178C582.844 312.266 582.718 312.311 582.555 312.311H578.311V325.378C578.311 325.526 578.259 325.652 578.155 325.755C578.066 325.844 577.94 325.889 577.777 325.889H576.622ZM587.764 326.111C586.238 326.111 585.023 325.644 584.12 324.711C583.216 323.763 582.72 322.474 582.631 320.844C582.616 320.652 582.608 320.407 582.608 320.111C582.608 319.8 582.616 319.548 582.631 319.355C582.69 318.303 582.934 317.385 583.364 316.6C583.794 315.8 584.379 315.185 585.12 314.755C585.875 314.326 586.757 314.111 587.764 314.111C588.89 314.111 589.831 314.348 590.586 314.822C591.357 315.296 591.942 315.97 592.342 316.844C592.742 317.718 592.942 318.741 592.942 319.911V320.289C592.942 320.452 592.89 320.578 592.786 320.666C592.697 320.755 592.579 320.8 592.431 320.8H584.742C584.742 320.815 584.742 320.844 584.742 320.889C584.742 320.933 584.742 320.97 584.742 321C584.771 321.607 584.905 322.178 585.142 322.711C585.379 323.229 585.72 323.652 586.164 323.978C586.608 324.303 587.142 324.466 587.764 324.466C588.297 324.466 588.742 324.385 589.097 324.222C589.453 324.059 589.742 323.881 589.964 323.689C590.186 323.481 590.334 323.326 590.408 323.222C590.542 323.029 590.645 322.918 590.72 322.889C590.794 322.844 590.912 322.822 591.075 322.822H592.142C592.29 322.822 592.408 322.866 592.497 322.955C592.601 323.029 592.645 323.141 592.631 323.289C592.616 323.511 592.497 323.785 592.275 324.111C592.053 324.422 591.734 324.733 591.32 325.044C590.905 325.355 590.401 325.615 589.808 325.822C589.216 326.015 588.534 326.111 587.764 326.111ZM584.742 319.266H590.831V319.2C590.831 318.533 590.705 317.941 590.453 317.422C590.216 316.903 589.868 316.496 589.408 316.2C588.949 315.889 588.401 315.733 587.764 315.733C587.127 315.733 586.579 315.889 586.12 316.2C585.675 316.496 585.334 316.903 585.097 317.422C584.86 317.941 584.742 318.533 584.742 319.2V319.266ZM594.827 325.889C594.708 325.889 594.597 325.844 594.493 325.755C594.405 325.666 594.36 325.555 594.36 325.422C594.36 325.378 594.368 325.326 594.382 325.266C594.412 325.192 594.456 325.111 594.516 325.022L598.382 319.978L594.76 315.2C594.701 315.111 594.656 315.037 594.627 314.978C594.612 314.918 594.605 314.859 594.605 314.8C594.605 314.666 594.649 314.555 594.738 314.466C594.827 314.378 594.938 314.333 595.071 314.333H596.205C596.368 314.333 596.486 314.378 596.56 314.466C596.649 314.541 596.723 314.615 596.782 314.689L599.738 318.533L602.693 314.711C602.753 314.637 602.819 314.555 602.893 314.466C602.982 314.378 603.108 314.333 603.271 314.333H604.36C604.493 314.333 604.605 314.378 604.693 314.466C604.782 314.555 604.827 314.666 604.827 314.8C604.827 314.859 604.812 314.918 604.782 314.978C604.768 315.037 604.731 315.111 604.671 315.2L601.005 320.022L604.871 325.022C604.931 325.111 604.968 325.185 604.982 325.244C605.012 325.303 605.027 325.363 605.027 325.422C605.027 325.555 604.982 325.666 604.893 325.755C604.805 325.844 604.693 325.889 604.56 325.889H603.382C603.234 325.889 603.116 325.852 603.027 325.778C602.938 325.703 602.864 325.629 602.805 325.555L599.671 321.489L596.538 325.555C596.479 325.615 596.405 325.689 596.316 325.778C596.242 325.852 596.123 325.889 595.96 325.889H594.827ZM611.85 325.889C611.021 325.889 610.347 325.733 609.828 325.422C609.31 325.096 608.932 324.644 608.695 324.066C608.458 323.474 608.339 322.778 608.339 321.978V316.111H606.606C606.458 316.111 606.332 316.066 606.228 315.978C606.139 315.874 606.095 315.748 606.095 315.6V314.844C606.095 314.696 606.139 314.578 606.228 314.489C606.332 314.385 606.458 314.333 606.606 314.333H608.339V310.622C608.339 310.474 608.384 310.355 608.473 310.266C608.576 310.163 608.702 310.111 608.85 310.111H609.895C610.043 310.111 610.162 310.163 610.25 310.266C610.354 310.355 610.406 310.474 610.406 310.622V314.333H613.162C613.31 314.333 613.428 314.385 613.517 314.489C613.621 314.578 613.673 314.696 613.673 314.844V315.6C613.673 315.748 613.621 315.874 613.517 315.978C613.428 316.066 613.31 316.111 613.162 316.111H610.406V321.822C610.406 322.518 610.525 323.066 610.762 323.466C610.999 323.866 611.421 324.066 612.028 324.066H613.384C613.532 324.066 613.65 324.118 613.739 324.222C613.843 324.311 613.895 324.429 613.895 324.578V325.378C613.895 325.526 613.843 325.652 613.739 325.755C613.65 325.844 613.532 325.889 613.384 325.889H611.85Z" fill="#4D4D4D"/>
<g clip-path="url(#clip0_853_4172)">
<g clip-path="url(#clip1_853_4172)">
<path d="M580.499 360.953C576.027 360.953 572.397 364.583 572.397 369.055C572.397 373.527 576.027 377.157 580.499 377.157C584.972 377.157 588.601 373.527 588.601 369.055C588.601 364.583 584.972 360.953 580.499 360.953ZM580.499 375.536C576.918 375.536 574.018 372.636 574.018 369.055C574.018 365.474 576.918 362.573 580.499 362.573C584.08 362.573 586.981 365.474 586.981 369.055C586.981 372.636 584.08 375.536 580.499 375.536Z" fill="#AFAFAF"/>
</g>
<path d="M607.905 375.749C606.803 375.749 605.857 375.561 605.066 375.185C604.276 374.796 603.666 374.207 603.239 373.416C602.811 372.612 602.571 371.607 602.519 370.402C602.506 369.832 602.5 369.287 602.5 368.769C602.5 368.237 602.506 367.686 602.519 367.116C602.571 365.923 602.817 364.932 603.258 364.141C603.712 363.337 604.334 362.741 605.125 362.352C605.928 361.95 606.855 361.749 607.905 361.749C608.968 361.749 609.895 361.95 610.686 362.352C611.489 362.741 612.118 363.337 612.572 364.141C613.026 364.932 613.272 365.923 613.311 367.116C613.337 367.686 613.35 368.237 613.35 368.769C613.35 369.287 613.337 369.832 613.311 370.402C613.272 371.607 613.032 372.612 612.591 373.416C612.164 374.207 611.554 374.796 610.764 375.185C609.973 375.561 609.02 375.749 607.905 375.749ZM607.905 374.096C608.903 374.096 609.714 373.798 610.336 373.202C610.971 372.606 611.314 371.64 611.366 370.305C611.392 369.721 611.405 369.203 611.405 368.749C611.405 368.282 611.392 367.764 611.366 367.194C611.34 366.299 611.172 365.573 610.861 365.016C610.563 364.458 610.161 364.05 609.655 363.791C609.15 363.532 608.566 363.402 607.905 363.402C607.27 363.402 606.7 363.532 606.194 363.791C605.689 364.05 605.28 364.458 604.969 365.016C604.671 365.573 604.502 366.299 604.464 367.194C604.451 367.764 604.444 368.282 604.444 368.749C604.444 369.203 604.451 369.721 604.464 370.305C604.515 371.64 604.859 372.606 605.494 373.202C606.129 373.798 606.933 374.096 607.905 374.096ZM616.398 379.249C616.268 379.249 616.158 379.204 616.067 379.113C615.989 379.035 615.951 378.932 615.951 378.802V365.891C615.951 365.761 615.989 365.657 616.067 365.58C616.158 365.489 616.268 365.444 616.398 365.444H617.292C617.422 365.444 617.526 365.489 617.603 365.58C617.694 365.657 617.739 365.761 617.739 365.891V366.746C618.051 366.319 618.465 365.962 618.984 365.677C619.502 365.392 620.151 365.249 620.928 365.249C621.654 365.249 622.27 365.372 622.776 365.619C623.294 365.865 623.715 366.202 624.039 366.63C624.376 367.057 624.629 367.544 624.798 368.088C624.966 368.632 625.057 369.216 625.07 369.838C625.083 370.045 625.089 370.266 625.089 370.499C625.089 370.732 625.083 370.953 625.07 371.16C625.057 371.77 624.966 372.353 624.798 372.91C624.629 373.455 624.376 373.941 624.039 374.369C623.715 374.783 623.294 375.12 622.776 375.38C622.27 375.626 621.654 375.749 620.928 375.749C620.176 375.749 619.541 375.613 619.023 375.341C618.517 375.056 618.102 374.706 617.778 374.291V378.802C617.778 378.932 617.739 379.035 617.662 379.113C617.584 379.204 617.474 379.249 617.331 379.249H616.398ZM620.52 374.174C621.194 374.174 621.719 374.032 622.095 373.746C622.484 373.448 622.763 373.066 622.931 372.599C623.1 372.12 623.197 371.607 623.223 371.063C623.236 370.687 623.236 370.311 623.223 369.935C623.197 369.391 623.1 368.885 622.931 368.419C622.763 367.939 622.484 367.557 622.095 367.271C621.719 366.973 621.194 366.824 620.52 366.824C619.885 366.824 619.366 366.973 618.964 367.271C618.576 367.57 618.284 367.952 618.089 368.419C617.908 368.872 617.804 369.339 617.778 369.819C617.765 370.026 617.759 370.272 617.759 370.557C617.759 370.843 617.765 371.095 617.778 371.316C617.791 371.77 617.895 372.217 618.089 372.657C618.297 373.098 618.601 373.461 619.003 373.746C619.405 374.032 619.911 374.174 620.52 374.174ZM631.347 375.555C630.622 375.555 630.032 375.419 629.578 375.146C629.124 374.861 628.794 374.466 628.586 373.96C628.379 373.442 628.275 372.832 628.275 372.132V366.999H626.759C626.629 366.999 626.519 366.96 626.428 366.882C626.35 366.792 626.311 366.682 626.311 366.552V365.891C626.311 365.761 626.35 365.657 626.428 365.58C626.519 365.489 626.629 365.444 626.759 365.444H628.275V362.196C628.275 362.067 628.314 361.963 628.392 361.885C628.483 361.795 628.593 361.749 628.722 361.749H629.636C629.766 361.749 629.87 361.795 629.947 361.885C630.038 361.963 630.084 362.067 630.084 362.196V365.444H632.495C632.624 365.444 632.728 365.489 632.806 365.58C632.897 365.657 632.942 365.761 632.942 365.891V366.552C632.942 366.682 632.897 366.792 632.806 366.882C632.728 366.96 632.624 366.999 632.495 366.999H630.084V371.996C630.084 372.606 630.187 373.085 630.395 373.435C630.602 373.785 630.972 373.96 631.503 373.96H632.689C632.819 373.96 632.922 374.006 633 374.096C633.091 374.174 633.136 374.278 633.136 374.407V375.107C633.136 375.237 633.091 375.347 633 375.438C632.922 375.516 632.819 375.555 632.689 375.555H631.347ZM635.443 375.555C635.313 375.555 635.203 375.516 635.112 375.438C635.035 375.347 634.996 375.237 634.996 375.107V365.891C634.996 365.761 635.035 365.657 635.112 365.58C635.203 365.489 635.313 365.444 635.443 365.444H636.376C636.506 365.444 636.61 365.489 636.687 365.58C636.765 365.657 636.804 365.761 636.804 365.891V375.107C636.804 375.237 636.765 375.347 636.687 375.438C636.61 375.516 636.506 375.555 636.376 375.555H635.443ZM635.287 363.557C635.158 363.557 635.048 363.519 634.957 363.441C634.879 363.35 634.84 363.24 634.84 363.11V362.06C634.84 361.931 634.879 361.827 634.957 361.749C635.048 361.658 635.158 361.613 635.287 361.613H636.512C636.642 361.613 636.746 361.658 636.824 361.749C636.914 361.827 636.96 361.931 636.96 362.06V363.11C636.96 363.24 636.914 363.35 636.824 363.441C636.746 363.519 636.642 363.557 636.512 363.557H635.287ZM643.847 375.749C642.861 375.749 642.038 375.561 641.377 375.185C640.716 374.809 640.211 374.291 639.861 373.63C639.511 372.956 639.316 372.191 639.277 371.335C639.264 371.115 639.258 370.836 639.258 370.499C639.258 370.149 639.264 369.87 639.277 369.663C639.316 368.795 639.511 368.03 639.861 367.369C640.223 366.707 640.736 366.189 641.397 365.813C642.058 365.437 642.874 365.249 643.847 365.249C644.819 365.249 645.636 365.437 646.297 365.813C646.958 366.189 647.463 366.707 647.813 367.369C648.176 368.03 648.377 368.795 648.416 369.663C648.429 369.87 648.435 370.149 648.435 370.499C648.435 370.836 648.429 371.115 648.416 371.335C648.377 372.191 648.183 372.956 647.833 373.63C647.483 374.291 646.977 374.809 646.316 375.185C645.655 375.561 644.832 375.749 643.847 375.749ZM643.847 374.252C644.65 374.252 645.292 373.999 645.772 373.494C646.251 372.975 646.511 372.223 646.549 371.238C646.562 371.044 646.569 370.797 646.569 370.499C646.569 370.201 646.562 369.955 646.549 369.76C646.511 368.775 646.251 368.03 645.772 367.524C645.292 367.006 644.65 366.746 643.847 366.746C643.043 366.746 642.395 367.006 641.902 367.524C641.423 368.03 641.17 368.775 641.144 369.76C641.131 369.955 641.124 370.201 641.124 370.499C641.124 370.797 641.131 371.044 641.144 371.238C641.17 372.223 641.423 372.975 641.902 373.494C642.395 373.999 643.043 374.252 643.847 374.252ZM651.318 375.555C651.188 375.555 651.078 375.516 650.987 375.438C650.909 375.347 650.87 375.237 650.87 375.107V365.891C650.87 365.761 650.909 365.657 650.987 365.58C651.078 365.489 651.188 365.444 651.318 365.444H652.231C652.361 365.444 652.465 365.489 652.543 365.58C652.633 365.657 652.679 365.761 652.679 365.891V366.746C653.016 366.306 653.437 365.949 653.943 365.677C654.461 365.392 655.122 365.249 655.926 365.249C656.768 365.249 657.481 365.437 658.065 365.813C658.661 366.176 659.108 366.688 659.406 367.349C659.705 367.997 659.854 368.756 659.854 369.624V375.107C659.854 375.237 659.815 375.347 659.737 375.438C659.659 375.516 659.555 375.555 659.426 375.555H658.454C658.324 375.555 658.214 375.516 658.123 375.438C658.045 375.347 658.006 375.237 658.006 375.107V369.721C658.006 368.814 657.786 368.107 657.345 367.602C656.905 367.083 656.256 366.824 655.401 366.824C654.597 366.824 653.949 367.083 653.456 367.602C652.977 368.107 652.737 368.814 652.737 369.721V375.107C652.737 375.237 652.692 375.347 652.601 375.438C652.523 375.516 652.419 375.555 652.29 375.555H651.318Z" fill="#6D6D6D"/>
<g clip-path="url(#clip2_853_4172)">
<path d="M580.499 403.064C576.027 403.064 572.397 406.694 572.397 411.166C572.397 415.639 576.027 419.268 580.499 419.268C584.972 419.268 588.601 415.639 588.601 411.166C588.601 406.694 584.972 403.064 580.499 403.064ZM580.499 417.648C576.918 417.648 574.018 414.747 574.018 411.166C574.018 407.585 576.918 404.685 580.499 404.685C584.08 404.685 586.981 407.585 586.981 411.166C586.981 414.747 584.08 417.648 580.499 417.648Z" fill="#AFAFAF"/>
</g>
<path d="M607.905 417.86C606.803 417.86 605.857 417.672 605.066 417.297C604.276 416.908 603.666 416.318 603.239 415.527C602.811 414.723 602.571 413.719 602.519 412.513C602.506 411.943 602.5 411.398 602.5 410.88C602.5 410.348 602.506 409.797 602.519 409.227C602.571 408.035 602.817 407.043 603.258 406.252C603.712 405.448 604.334 404.852 605.125 404.463C605.928 404.061 606.855 403.86 607.905 403.86C608.968 403.86 609.895 404.061 610.686 404.463C611.489 404.852 612.118 405.448 612.572 406.252C613.026 407.043 613.272 408.035 613.311 409.227C613.337 409.797 613.35 410.348 613.35 410.88C613.35 411.398 613.337 411.943 613.311 412.513C613.272 413.719 613.032 414.723 612.591 415.527C612.164 416.318 611.554 416.908 610.764 417.297C609.973 417.672 609.02 417.86 607.905 417.86ZM607.905 416.208C608.903 416.208 609.714 415.91 610.336 415.313C610.971 414.717 611.314 413.751 611.366 412.416C611.392 411.833 611.405 411.314 611.405 410.86C611.405 410.394 611.392 409.875 611.366 409.305C611.34 408.41 611.172 407.685 610.861 407.127C610.563 406.57 610.161 406.161 609.655 405.902C609.15 405.643 608.566 405.513 607.905 405.513C607.27 405.513 606.7 405.643 606.194 405.902C605.689 406.161 605.28 406.57 604.969 407.127C604.671 407.685 604.502 408.41 604.464 409.305C604.451 409.875 604.444 410.394 604.444 410.86C604.444 411.314 604.451 411.833 604.464 412.416C604.515 413.751 604.859 414.717 605.494 415.313C606.129 415.91 606.933 416.208 607.905 416.208ZM616.398 421.36C616.268 421.36 616.158 421.315 616.067 421.224C615.989 421.147 615.951 421.043 615.951 420.913V408.002C615.951 407.872 615.989 407.769 616.067 407.691C616.158 407.6 616.268 407.555 616.398 407.555H617.292C617.422 407.555 617.526 407.6 617.603 407.691C617.694 407.769 617.739 407.872 617.739 408.002V408.858C618.051 408.43 618.465 408.073 618.984 407.788C619.502 407.503 620.151 407.36 620.928 407.36C621.654 407.36 622.27 407.484 622.776 407.73C623.294 407.976 623.715 408.313 624.039 408.741C624.376 409.169 624.629 409.655 624.798 410.199C624.966 410.744 625.057 411.327 625.07 411.949C625.083 412.157 625.089 412.377 625.089 412.61C625.089 412.844 625.083 413.064 625.07 413.272C625.057 413.881 624.966 414.464 624.798 415.022C624.629 415.566 624.376 416.052 624.039 416.48C623.715 416.895 623.294 417.232 622.776 417.491C622.27 417.737 621.654 417.86 620.928 417.86C620.176 417.86 619.541 417.724 619.023 417.452C618.517 417.167 618.102 416.817 617.778 416.402V420.913C617.778 421.043 617.739 421.147 617.662 421.224C617.584 421.315 617.474 421.36 617.331 421.36H616.398ZM620.52 416.285C621.194 416.285 621.719 416.143 622.095 415.858C622.484 415.56 622.763 415.177 622.931 414.71C623.1 414.231 623.197 413.719 623.223 413.174C623.236 412.798 623.236 412.422 623.223 412.047C623.197 411.502 623.1 410.997 622.931 410.53C622.763 410.05 622.484 409.668 622.095 409.383C621.719 409.085 621.194 408.935 620.52 408.935C619.885 408.935 619.366 409.085 618.964 409.383C618.576 409.681 618.284 410.063 618.089 410.53C617.908 410.984 617.804 411.45 617.778 411.93C617.765 412.137 617.759 412.384 617.759 412.669C617.759 412.954 617.765 413.207 617.778 413.427C617.791 413.881 617.895 414.328 618.089 414.769C618.297 415.21 618.601 415.572 619.003 415.858C619.405 416.143 619.911 416.285 620.52 416.285ZM631.347 417.666C630.622 417.666 630.032 417.53 629.578 417.258C629.124 416.972 628.794 416.577 628.586 416.072C628.379 415.553 628.275 414.944 628.275 414.244V409.11H626.759C626.629 409.11 626.519 409.072 626.428 408.994C626.35 408.903 626.311 408.793 626.311 408.663V408.002C626.311 407.872 626.35 407.769 626.428 407.691C626.519 407.6 626.629 407.555 626.759 407.555H628.275V404.308C628.275 404.178 628.314 404.074 628.392 403.997C628.483 403.906 628.593 403.86 628.722 403.86H629.636C629.766 403.86 629.87 403.906 629.947 403.997C630.038 404.074 630.084 404.178 630.084 404.308V407.555H632.495C632.624 407.555 632.728 407.6 632.806 407.691C632.897 407.769 632.942 407.872 632.942 408.002V408.663C632.942 408.793 632.897 408.903 632.806 408.994C632.728 409.072 632.624 409.11 632.495 409.11H630.084V414.108C630.084 414.717 630.187 415.197 630.395 415.547C630.602 415.897 630.972 416.072 631.503 416.072H632.689C632.819 416.072 632.922 416.117 633 416.208C633.091 416.285 633.136 416.389 633.136 416.519V417.219C633.136 417.348 633.091 417.459 633 417.549C632.922 417.627 632.819 417.666 632.689 417.666H631.347ZM635.443 417.666C635.313 417.666 635.203 417.627 635.112 417.549C635.035 417.459 634.996 417.348 634.996 417.219V408.002C634.996 407.872 635.035 407.769 635.112 407.691C635.203 407.6 635.313 407.555 635.443 407.555H636.376C636.506 407.555 636.61 407.6 636.687 407.691C636.765 407.769 636.804 407.872 636.804 408.002V417.219C636.804 417.348 636.765 417.459 636.687 417.549C636.61 417.627 636.506 417.666 636.376 417.666H635.443ZM635.287 405.669C635.158 405.669 635.048 405.63 634.957 405.552C634.879 405.461 634.84 405.351 634.84 405.222V404.172C634.84 404.042 634.879 403.938 634.957 403.86C635.048 403.77 635.158 403.724 635.287 403.724H636.512C636.642 403.724 636.746 403.77 636.824 403.86C636.914 403.938 636.96 404.042 636.96 404.172V405.222C636.96 405.351 636.914 405.461 636.824 405.552C636.746 405.63 636.642 405.669 636.512 405.669H635.287ZM643.847 417.86C642.861 417.86 642.038 417.672 641.377 417.297C640.716 416.921 640.211 416.402 639.861 415.741C639.511 415.067 639.316 414.302 639.277 413.447C639.264 413.226 639.258 412.947 639.258 412.61C639.258 412.26 639.264 411.982 639.277 411.774C639.316 410.906 639.511 410.141 639.861 409.48C640.223 408.819 640.736 408.3 641.397 407.924C642.058 407.548 642.874 407.36 643.847 407.36C644.819 407.36 645.636 407.548 646.297 407.924C646.958 408.3 647.463 408.819 647.813 409.48C648.176 410.141 648.377 410.906 648.416 411.774C648.429 411.982 648.435 412.26 648.435 412.61C648.435 412.947 648.429 413.226 648.416 413.447C648.377 414.302 648.183 415.067 647.833 415.741C647.483 416.402 646.977 416.921 646.316 417.297C645.655 417.672 644.832 417.86 643.847 417.86ZM643.847 416.363C644.65 416.363 645.292 416.11 645.772 415.605C646.251 415.086 646.511 414.335 646.549 413.349C646.562 413.155 646.569 412.909 646.569 412.61C646.569 412.312 646.562 412.066 646.549 411.872C646.511 410.886 646.251 410.141 645.772 409.635C645.292 409.117 644.65 408.858 643.847 408.858C643.043 408.858 642.395 409.117 641.902 409.635C641.423 410.141 641.17 410.886 641.144 411.872C641.131 412.066 641.124 412.312 641.124 412.61C641.124 412.909 641.131 413.155 641.144 413.349C641.17 414.335 641.423 415.086 641.902 415.605C642.395 416.11 643.043 416.363 643.847 416.363ZM651.318 417.666C651.188 417.666 651.078 417.627 650.987 417.549C650.909 417.459 650.87 417.348 650.87 417.219V408.002C650.87 407.872 650.909 407.769 650.987 407.691C651.078 407.6 651.188 407.555 651.318 407.555H652.231C652.361 407.555 652.465 407.6 652.543 407.691C652.633 407.769 652.679 407.872 652.679 408.002V408.858C653.016 408.417 653.437 408.06 653.943 407.788C654.461 407.503 655.122 407.36 655.926 407.36C656.768 407.36 657.481 407.548 658.065 407.924C658.661 408.287 659.108 408.799 659.406 409.46C659.705 410.109 659.854 410.867 659.854 411.735V417.219C659.854 417.348 659.815 417.459 659.737 417.549C659.659 417.627 659.555 417.666 659.426 417.666H658.454C658.324 417.666 658.214 417.627 658.123 417.549C658.045 417.459 658.006 417.348 658.006 417.219V411.833C658.006 410.925 657.786 410.219 657.345 409.713C656.905 409.195 656.256 408.935 655.401 408.935C654.597 408.935 653.949 409.195 653.456 409.713C652.977 410.219 652.737 410.925 652.737 411.833V417.219C652.737 417.348 652.692 417.459 652.601 417.549C652.523 417.627 652.419 417.666 652.29 417.666H651.318Z" fill="#6D6D6D"/>
<g clip-path="url(#clip3_853_4172)">
<path d="M580.499 445.176C576.027 445.176 572.397 448.805 572.397 453.278C572.397 457.75 576.027 461.379 580.499 461.379C584.972 461.379 588.601 457.75 588.601 453.278C588.601 448.805 584.972 445.176 580.499 445.176ZM580.499 459.759C576.918 459.759 574.018 456.859 574.018 453.278C574.018 449.697 576.918 446.796 580.499 446.796C584.08 446.796 586.981 449.697 586.981 453.278C586.981 456.859 584.08 459.759 580.499 459.759Z" fill="#AFAFAF"/>
</g>
<path d="M607.905 459.972C606.803 459.972 605.857 459.784 605.066 459.408C604.276 459.019 603.666 458.429 603.239 457.638C602.811 456.835 602.571 455.83 602.519 454.625C602.506 454.054 602.5 453.51 602.5 452.991C602.5 452.46 602.506 451.909 602.519 451.338C602.571 450.146 602.817 449.154 603.258 448.363C603.712 447.56 604.334 446.963 605.125 446.575C605.928 446.173 606.855 445.972 607.905 445.972C608.968 445.972 609.895 446.173 610.686 446.575C611.489 446.963 612.118 447.56 612.572 448.363C613.026 449.154 613.272 450.146 613.311 451.338C613.337 451.909 613.35 452.46 613.35 452.991C613.35 453.51 613.337 454.054 613.311 454.625C613.272 455.83 613.032 456.835 612.591 457.638C612.164 458.429 611.554 459.019 610.764 459.408C609.973 459.784 609.02 459.972 607.905 459.972ZM607.905 458.319C608.903 458.319 609.714 458.021 610.336 457.425C610.971 456.828 611.314 455.863 611.366 454.527C611.392 453.944 611.405 453.425 611.405 452.972C611.405 452.505 611.392 451.987 611.366 451.416C611.34 450.522 611.172 449.796 610.861 449.238C610.563 448.681 610.161 448.273 609.655 448.013C609.15 447.754 608.566 447.625 607.905 447.625C607.27 447.625 606.7 447.754 606.194 448.013C605.689 448.273 605.28 448.681 604.969 449.238C604.671 449.796 604.502 450.522 604.464 451.416C604.451 451.987 604.444 452.505 604.444 452.972C604.444 453.425 604.451 453.944 604.464 454.527C604.515 455.863 604.859 456.828 605.494 457.425C606.129 458.021 606.933 458.319 607.905 458.319ZM616.398 463.472C616.268 463.472 616.158 463.426 616.067 463.336C615.989 463.258 615.951 463.154 615.951 463.025V450.113C615.951 449.984 615.989 449.88 616.067 449.802C616.158 449.712 616.268 449.666 616.398 449.666H617.292C617.422 449.666 617.526 449.712 617.603 449.802C617.694 449.88 617.739 449.984 617.739 450.113V450.969C618.051 450.541 618.465 450.185 618.984 449.9C619.502 449.614 620.151 449.472 620.928 449.472C621.654 449.472 622.27 449.595 622.776 449.841C623.294 450.088 623.715 450.425 624.039 450.852C624.376 451.28 624.629 451.766 624.798 452.311C624.966 452.855 625.057 453.438 625.07 454.061C625.083 454.268 625.089 454.488 625.089 454.722C625.089 454.955 625.083 455.175 625.07 455.383C625.057 455.992 624.966 456.575 624.798 457.133C624.629 457.677 624.376 458.163 624.039 458.591C623.715 459.006 623.294 459.343 622.776 459.602C622.27 459.849 621.654 459.972 620.928 459.972C620.176 459.972 619.541 459.836 619.023 459.563C618.517 459.278 618.102 458.928 617.778 458.513V463.025C617.778 463.154 617.739 463.258 617.662 463.336C617.584 463.426 617.474 463.472 617.331 463.472H616.398ZM620.52 458.397C621.194 458.397 621.719 458.254 622.095 457.969C622.484 457.671 622.763 457.288 622.931 456.822C623.1 456.342 623.197 455.83 623.223 455.286C623.236 454.91 623.236 454.534 623.223 454.158C623.197 453.613 623.1 453.108 622.931 452.641C622.763 452.162 622.484 451.779 622.095 451.494C621.719 451.196 621.194 451.047 620.52 451.047C619.885 451.047 619.366 451.196 618.964 451.494C618.576 451.792 618.284 452.175 618.089 452.641C617.908 453.095 617.804 453.562 617.778 454.041C617.765 454.249 617.759 454.495 617.759 454.78C617.759 455.065 617.765 455.318 617.778 455.538C617.791 455.992 617.895 456.439 618.089 456.88C618.297 457.321 618.601 457.684 619.003 457.969C619.405 458.254 619.911 458.397 620.52 458.397ZM631.347 459.777C630.622 459.777 630.032 459.641 629.578 459.369C629.124 459.084 628.794 458.688 628.586 458.183C628.379 457.664 628.275 457.055 628.275 456.355V451.222H626.759C626.629 451.222 626.519 451.183 626.428 451.105C626.35 451.014 626.311 450.904 626.311 450.775V450.113C626.311 449.984 626.35 449.88 626.428 449.802C626.519 449.712 626.629 449.666 626.759 449.666H628.275V446.419C628.275 446.289 628.314 446.186 628.392 446.108C628.483 446.017 628.593 445.972 628.722 445.972H629.636C629.766 445.972 629.87 446.017 629.947 446.108C630.038 446.186 630.084 446.289 630.084 446.419V449.666H632.495C632.624 449.666 632.728 449.712 632.806 449.802C632.897 449.88 632.942 449.984 632.942 450.113V450.775C632.942 450.904 632.897 451.014 632.806 451.105C632.728 451.183 632.624 451.222 632.495 451.222H630.084V456.219C630.084 456.828 630.187 457.308 630.395 457.658C630.602 458.008 630.972 458.183 631.503 458.183H632.689C632.819 458.183 632.922 458.228 633 458.319C633.091 458.397 633.136 458.5 633.136 458.63V459.33C633.136 459.46 633.091 459.57 633 459.661C632.922 459.738 632.819 459.777 632.689 459.777H631.347ZM635.443 459.777C635.313 459.777 635.203 459.738 635.112 459.661C635.035 459.57 634.996 459.46 634.996 459.33V450.113C634.996 449.984 635.035 449.88 635.112 449.802C635.203 449.712 635.313 449.666 635.443 449.666H636.376C636.506 449.666 636.61 449.712 636.687 449.802C636.765 449.88 636.804 449.984 636.804 450.113V459.33C636.804 459.46 636.765 459.57 636.687 459.661C636.61 459.738 636.506 459.777 636.376 459.777H635.443ZM635.287 447.78C635.158 447.78 635.048 447.741 634.957 447.663C634.879 447.573 634.84 447.463 634.84 447.333V446.283C634.84 446.153 634.879 446.05 634.957 445.972C635.048 445.881 635.158 445.836 635.287 445.836H636.512C636.642 445.836 636.746 445.881 636.824 445.972C636.914 446.05 636.96 446.153 636.96 446.283V447.333C636.96 447.463 636.914 447.573 636.824 447.663C636.746 447.741 636.642 447.78 636.512 447.78H635.287ZM643.847 459.972C642.861 459.972 642.038 459.784 641.377 459.408C640.716 459.032 640.211 458.513 639.861 457.852C639.511 457.178 639.316 456.413 639.277 455.558C639.264 455.338 639.258 455.059 639.258 454.722C639.258 454.372 639.264 454.093 639.277 453.886C639.316 453.017 639.511 452.252 639.861 451.591C640.223 450.93 640.736 450.412 641.397 450.036C642.058 449.66 642.874 449.472 643.847 449.472C644.819 449.472 645.636 449.66 646.297 450.036C646.958 450.412 647.463 450.93 647.813 451.591C648.176 452.252 648.377 453.017 648.416 453.886C648.429 454.093 648.435 454.372 648.435 454.722C648.435 455.059 648.429 455.338 648.416 455.558C648.377 456.413 648.183 457.178 647.833 457.852C647.483 458.513 646.977 459.032 646.316 459.408C645.655 459.784 644.832 459.972 643.847 459.972ZM643.847 458.475C644.65 458.475 645.292 458.222 645.772 457.716C646.251 457.198 646.511 456.446 646.549 455.461C646.562 455.266 646.569 455.02 646.569 454.722C646.569 454.424 646.562 454.177 646.549 453.983C646.511 452.998 646.251 452.252 645.772 451.747C645.292 451.228 644.65 450.969 643.847 450.969C643.043 450.969 642.395 451.228 641.902 451.747C641.423 452.252 641.17 452.998 641.144 453.983C641.131 454.177 641.124 454.424 641.124 454.722C641.124 455.02 641.131 455.266 641.144 455.461C641.17 456.446 641.423 457.198 641.902 457.716C642.395 458.222 643.043 458.475 643.847 458.475ZM651.318 459.777C651.188 459.777 651.078 459.738 650.987 459.661C650.909 459.57 650.87 459.46 650.87 459.33V450.113C650.87 449.984 650.909 449.88 650.987 449.802C651.078 449.712 651.188 449.666 651.318 449.666H652.231C652.361 449.666 652.465 449.712 652.543 449.802C652.633 449.88 652.679 449.984 652.679 450.113V450.969C653.016 450.528 653.437 450.172 653.943 449.9C654.461 449.614 655.122 449.472 655.926 449.472C656.768 449.472 657.481 449.66 658.065 450.036C658.661 450.399 659.108 450.911 659.406 451.572C659.705 452.22 659.854 452.978 659.854 453.847V459.33C659.854 459.46 659.815 459.57 659.737 459.661C659.659 459.738 659.555 459.777 659.426 459.777H658.454C658.324 459.777 658.214 459.738 658.123 459.661C658.045 459.57 658.006 459.46 658.006 459.33V453.944C658.006 453.037 657.786 452.33 657.345 451.825C656.905 451.306 656.256 451.047 655.401 451.047C654.597 451.047 653.949 451.306 653.456 451.825C652.977 452.33 652.737 453.037 652.737 453.944V459.33C652.737 459.46 652.692 459.57 652.601 459.661C652.523 459.738 652.419 459.777 652.29 459.777H651.318Z" fill="#6D6D6D"/>
<g clip-path="url(#clip4_853_4172)">
<path d="M580.499 487.287C576.027 487.287 572.397 490.917 572.397 495.389C572.397 499.861 576.027 503.491 580.499 503.491C584.972 503.491 588.601 499.861 588.601 495.389C588.601 490.917 584.972 487.287 580.499 487.287ZM580.499 501.87C576.918 501.87 574.018 498.97 574.018 495.389C574.018 491.808 576.918 488.907 580.499 488.907C584.08 488.907 586.981 491.808 586.981 495.389C586.981 498.97 584.08 501.87 580.499 501.87Z" fill="#AFAFAF"/>
</g>
<path d="M607.905 502.083C606.803 502.083 605.857 501.895 605.066 501.519C604.276 501.13 603.666 500.541 603.239 499.75C602.811 498.946 602.571 497.941 602.519 496.736C602.506 496.166 602.5 495.621 602.5 495.103C602.5 494.571 602.506 494.02 602.519 493.45C602.571 492.257 602.817 491.266 603.258 490.475C603.712 489.671 604.334 489.075 605.125 488.686C605.928 488.284 606.855 488.083 607.905 488.083C608.968 488.083 609.895 488.284 610.686 488.686C611.489 489.075 612.118 489.671 612.572 490.475C613.026 491.266 613.272 492.257 613.311 493.45C613.337 494.02 613.35 494.571 613.35 495.103C613.35 495.621 613.337 496.166 613.311 496.736C613.272 497.941 613.032 498.946 612.591 499.75C612.164 500.541 611.554 501.13 610.764 501.519C609.973 501.895 609.02 502.083 607.905 502.083ZM607.905 500.43C608.903 500.43 609.714 500.132 610.336 499.536C610.971 498.94 611.314 497.974 611.366 496.639C611.392 496.055 611.405 495.537 611.405 495.083C611.405 494.616 611.392 494.098 611.366 493.528C611.34 492.633 611.172 491.907 610.861 491.35C610.563 490.792 610.161 490.384 609.655 490.125C609.15 489.866 608.566 489.736 607.905 489.736C607.27 489.736 606.7 489.866 606.194 490.125C605.689 490.384 605.28 490.792 604.969 491.35C604.671 491.907 604.502 492.633 604.464 493.528C604.451 494.098 604.444 494.616 604.444 495.083C604.444 495.537 604.451 496.055 604.464 496.639C604.515 497.974 604.859 498.94 605.494 499.536C606.129 500.132 606.933 500.43 607.905 500.43ZM616.398 505.583C616.268 505.583 616.158 505.538 616.067 505.447C615.989 505.369 615.951 505.266 615.951 505.136V492.225C615.951 492.095 615.989 491.991 616.067 491.914C616.158 491.823 616.268 491.778 616.398 491.778H617.292C617.422 491.778 617.526 491.823 617.603 491.914C617.694 491.991 617.739 492.095 617.739 492.225V493.08C618.051 492.653 618.465 492.296 618.984 492.011C619.502 491.726 620.151 491.583 620.928 491.583C621.654 491.583 622.27 491.706 622.776 491.953C623.294 492.199 623.715 492.536 624.039 492.964C624.376 493.391 624.629 493.878 624.798 494.422C624.966 494.966 625.057 495.55 625.07 496.172C625.083 496.379 625.089 496.6 625.089 496.833C625.089 497.066 625.083 497.287 625.07 497.494C625.057 498.103 624.966 498.687 624.798 499.244C624.629 499.789 624.376 500.275 624.039 500.703C623.715 501.117 623.294 501.454 622.776 501.714C622.27 501.96 621.654 502.083 620.928 502.083C620.176 502.083 619.541 501.947 619.023 501.675C618.517 501.39 618.102 501.04 617.778 500.625V505.136C617.778 505.266 617.739 505.369 617.662 505.447C617.584 505.538 617.474 505.583 617.331 505.583H616.398ZM620.52 500.508C621.194 500.508 621.719 500.366 622.095 500.08C622.484 499.782 622.763 499.4 622.931 498.933C623.1 498.453 623.197 497.941 623.223 497.397C623.236 497.021 623.236 496.645 623.223 496.269C623.197 495.725 623.1 495.219 622.931 494.753C622.763 494.273 622.484 493.891 622.095 493.605C621.719 493.307 621.194 493.158 620.52 493.158C619.885 493.158 619.366 493.307 618.964 493.605C618.576 493.903 618.284 494.286 618.089 494.753C617.908 495.206 617.804 495.673 617.778 496.153C617.765 496.36 617.759 496.606 617.759 496.891C617.759 497.177 617.765 497.429 617.778 497.65C617.791 498.103 617.895 498.551 618.089 498.991C618.297 499.432 618.601 499.795 619.003 500.08C619.405 500.366 619.911 500.508 620.52 500.508ZM631.347 501.889C630.622 501.889 630.032 501.753 629.578 501.48C629.124 501.195 628.794 500.8 628.586 500.294C628.379 499.776 628.275 499.166 628.275 498.466V493.333H626.759C626.629 493.333 626.519 493.294 626.428 493.216C626.35 493.126 626.311 493.016 626.311 492.886V492.225C626.311 492.095 626.35 491.991 626.428 491.914C626.519 491.823 626.629 491.778 626.759 491.778H628.275V488.53C628.275 488.401 628.314 488.297 628.392 488.219C628.483 488.128 628.593 488.083 628.722 488.083H629.636C629.766 488.083 629.87 488.128 629.947 488.219C630.038 488.297 630.084 488.401 630.084 488.53V491.778H632.495C632.624 491.778 632.728 491.823 632.806 491.914C632.897 491.991 632.942 492.095 632.942 492.225V492.886C632.942 493.016 632.897 493.126 632.806 493.216C632.728 493.294 632.624 493.333 632.495 493.333H630.084V498.33C630.084 498.94 630.187 499.419 630.395 499.769C630.602 500.119 630.972 500.294 631.503 500.294H632.689C632.819 500.294 632.922 500.34 633 500.43C633.091 500.508 633.136 500.612 633.136 500.741V501.441C633.136 501.571 633.091 501.681 633 501.772C632.922 501.85 632.819 501.889 632.689 501.889H631.347ZM635.443 501.889C635.313 501.889 635.203 501.85 635.112 501.772C635.035 501.681 634.996 501.571 634.996 501.441V492.225C634.996 492.095 635.035 491.991 635.112 491.914C635.203 491.823 635.313 491.778 635.443 491.778H636.376C636.506 491.778 636.61 491.823 636.687 491.914C636.765 491.991 636.804 492.095 636.804 492.225V501.441C636.804 501.571 636.765 501.681 636.687 501.772C636.61 501.85 636.506 501.889 636.376 501.889H635.443ZM635.287 489.891C635.158 489.891 635.048 489.853 634.957 489.775C634.879 489.684 634.84 489.574 634.84 489.444V488.394C634.84 488.265 634.879 488.161 634.957 488.083C635.048 487.992 635.158 487.947 635.287 487.947H636.512C636.642 487.947 636.746 487.992 636.824 488.083C636.914 488.161 636.96 488.265 636.96 488.394V489.444C636.96 489.574 636.914 489.684 636.824 489.775C636.746 489.853 636.642 489.891 636.512 489.891H635.287ZM643.847 502.083C642.861 502.083 642.038 501.895 641.377 501.519C640.716 501.143 640.211 500.625 639.861 499.964C639.511 499.29 639.316 498.525 639.277 497.669C639.264 497.449 639.258 497.17 639.258 496.833C639.258 496.483 639.264 496.204 639.277 495.997C639.316 495.128 639.511 494.364 639.861 493.703C640.223 493.041 640.736 492.523 641.397 492.147C642.058 491.771 642.874 491.583 643.847 491.583C644.819 491.583 645.636 491.771 646.297 492.147C646.958 492.523 647.463 493.041 647.813 493.703C648.176 494.364 648.377 495.128 648.416 495.997C648.429 496.204 648.435 496.483 648.435 496.833C648.435 497.17 648.429 497.449 648.416 497.669C648.377 498.525 648.183 499.29 647.833 499.964C647.483 500.625 646.977 501.143 646.316 501.519C645.655 501.895 644.832 502.083 643.847 502.083ZM643.847 500.586C644.65 500.586 645.292 500.333 645.772 499.828C646.251 499.309 646.511 498.557 646.549 497.572C646.562 497.378 646.569 497.131 646.569 496.833C646.569 496.535 646.562 496.289 646.549 496.094C646.511 495.109 646.251 494.364 645.772 493.858C645.292 493.34 644.65 493.08 643.847 493.08C643.043 493.08 642.395 493.34 641.902 493.858C641.423 494.364 641.17 495.109 641.144 496.094C641.131 496.289 641.124 496.535 641.124 496.833C641.124 497.131 641.131 497.378 641.144 497.572C641.17 498.557 641.423 499.309 641.902 499.828C642.395 500.333 643.043 500.586 643.847 500.586ZM651.318 501.889C651.188 501.889 651.078 501.85 650.987 501.772C650.909 501.681 650.87 501.571 650.87 501.441V492.225C650.87 492.095 650.909 491.991 650.987 491.914C651.078 491.823 651.188 491.778 651.318 491.778H652.231C652.361 491.778 652.465 491.823 652.543 491.914C652.633 491.991 652.679 492.095 652.679 492.225V493.08C653.016 492.64 653.437 492.283 653.943 492.011C654.461 491.726 655.122 491.583 655.926 491.583C656.768 491.583 657.481 491.771 658.065 492.147C658.661 492.51 659.108 493.022 659.406 493.683C659.705 494.331 659.854 495.09 659.854 495.958V501.441C659.854 501.571 659.815 501.681 659.737 501.772C659.659 501.85 659.555 501.889 659.426 501.889H658.454C658.324 501.889 658.214 501.85 658.123 501.772C658.045 501.681 658.006 501.571 658.006 501.441V496.055C658.006 495.148 657.786 494.441 657.345 493.936C656.905 493.417 656.256 493.158 655.401 493.158C654.597 493.158 653.949 493.417 653.456 493.936C652.977 494.441 652.737 495.148 652.737 496.055V501.441C652.737 501.571 652.692 501.681 652.601 501.772C652.523 501.85 652.419 501.889 652.29 501.889H651.318Z" fill="#6D6D6D"/>
<g clip-path="url(#clip5_853_4172)">
<path d="M580.499 529.398C576.027 529.398 572.397 533.028 572.397 537.5C572.397 541.973 576.027 545.602 580.499 545.602C584.972 545.602 588.601 541.973 588.601 537.5C588.601 533.028 584.972 529.398 580.499 529.398ZM580.499 543.982C576.918 543.982 574.018 541.081 574.018 537.5C574.018 533.919 576.918 531.019 580.499 531.019C584.08 531.019 586.981 533.919 586.981 537.5C586.981 541.081 584.08 543.982 580.499 543.982Z" fill="#AFAFAF"/>
</g>
<path d="M607.905 544.194C606.803 544.194 605.857 544.006 605.066 543.631C604.276 543.242 603.666 542.652 603.239 541.861C602.811 541.057 602.571 540.053 602.519 538.847C602.506 538.277 602.5 537.732 602.5 537.214C602.5 536.682 602.506 536.131 602.519 535.561C602.571 534.369 602.817 533.377 603.258 532.586C603.712 531.782 604.334 531.186 605.125 530.797C605.928 530.395 606.855 530.194 607.905 530.194C608.968 530.194 609.895 530.395 610.686 530.797C611.489 531.186 612.118 531.782 612.572 532.586C613.026 533.377 613.272 534.369 613.311 535.561C613.337 536.131 613.35 536.682 613.35 537.214C613.35 537.732 613.337 538.277 613.311 538.847C613.272 540.053 613.032 541.057 612.591 541.861C612.164 542.652 611.554 543.242 610.764 543.631C609.973 544.006 609.02 544.194 607.905 544.194ZM607.905 542.542C608.903 542.542 609.714 542.244 610.336 541.647C610.971 541.051 611.314 540.085 611.366 538.75C611.392 538.167 611.405 537.648 611.405 537.194C611.405 536.728 611.392 536.209 611.366 535.639C611.34 534.744 611.172 534.019 610.861 533.461C610.563 532.904 610.161 532.495 609.655 532.236C609.15 531.977 608.566 531.847 607.905 531.847C607.27 531.847 606.7 531.977 606.194 532.236C605.689 532.495 605.28 532.904 604.969 533.461C604.671 534.019 604.502 534.744 604.464 535.639C604.451 536.209 604.444 536.728 604.444 537.194C604.444 537.648 604.451 538.167 604.464 538.75C604.515 540.085 604.859 541.051 605.494 541.647C606.129 542.244 606.933 542.542 607.905 542.542ZM616.398 547.694C616.268 547.694 616.158 547.649 616.067 547.558C615.989 547.481 615.951 547.377 615.951 547.247V534.336C615.951 534.206 615.989 534.103 616.067 534.025C616.158 533.934 616.268 533.889 616.398 533.889H617.292C617.422 533.889 617.526 533.934 617.603 534.025C617.694 534.103 617.739 534.206 617.739 534.336V535.192C618.051 534.764 618.465 534.407 618.984 534.122C619.502 533.837 620.151 533.694 620.928 533.694C621.654 533.694 622.27 533.818 622.776 534.064C623.294 534.31 623.715 534.647 624.039 535.075C624.376 535.503 624.629 535.989 624.798 536.533C624.966 537.078 625.057 537.661 625.07 538.283C625.083 538.491 625.089 538.711 625.089 538.944C625.089 539.178 625.083 539.398 625.07 539.606C625.057 540.215 624.966 540.798 624.798 541.356C624.629 541.9 624.376 542.386 624.039 542.814C623.715 543.229 623.294 543.566 622.776 543.825C622.27 544.071 621.654 544.194 620.928 544.194C620.176 544.194 619.541 544.058 619.023 543.786C618.517 543.501 618.102 543.151 617.778 542.736V547.247C617.778 547.377 617.739 547.481 617.662 547.558C617.584 547.649 617.474 547.694 617.331 547.694H616.398ZM620.52 542.619C621.194 542.619 621.719 542.477 622.095 542.192C622.484 541.894 622.763 541.511 622.931 541.044C623.1 540.565 623.197 540.053 623.223 539.508C623.236 539.132 623.236 538.756 623.223 538.381C623.197 537.836 623.1 537.331 622.931 536.864C622.763 536.384 622.484 536.002 622.095 535.717C621.719 535.419 621.194 535.269 620.52 535.269C619.885 535.269 619.366 535.419 618.964 535.717C618.576 536.015 618.284 536.397 618.089 536.864C617.908 537.318 617.804 537.784 617.778 538.264C617.765 538.471 617.759 538.718 617.759 539.003C617.759 539.288 617.765 539.541 617.778 539.761C617.791 540.215 617.895 540.662 618.089 541.103C618.297 541.544 618.601 541.906 619.003 542.192C619.405 542.477 619.911 542.619 620.52 542.619ZM631.347 544C630.622 544 630.032 543.864 629.578 543.592C629.124 543.306 628.794 542.911 628.586 542.406C628.379 541.887 628.275 541.278 628.275 540.578V535.444H626.759C626.629 535.444 626.519 535.406 626.428 535.328C626.35 535.237 626.311 535.127 626.311 534.997V534.336C626.311 534.206 626.35 534.103 626.428 534.025C626.519 533.934 626.629 533.889 626.759 533.889H628.275V530.642C628.275 530.512 628.314 530.408 628.392 530.331C628.483 530.24 628.593 530.194 628.722 530.194H629.636C629.766 530.194 629.87 530.24 629.947 530.331C630.038 530.408 630.084 530.512 630.084 530.642V533.889H632.495C632.624 533.889 632.728 533.934 632.806 534.025C632.897 534.103 632.942 534.206 632.942 534.336V534.997C632.942 535.127 632.897 535.237 632.806 535.328C632.728 535.406 632.624 535.444 632.495 535.444H630.084V540.442C630.084 541.051 630.187 541.531 630.395 541.881C630.602 542.231 630.972 542.406 631.503 542.406H632.689C632.819 542.406 632.922 542.451 633 542.542C633.091 542.619 633.136 542.723 633.136 542.853V543.553C633.136 543.682 633.091 543.793 633 543.883C632.922 543.961 632.819 544 632.689 544H631.347ZM635.443 544C635.313 544 635.203 543.961 635.112 543.883C635.035 543.793 634.996 543.682 634.996 543.553V534.336C634.996 534.206 635.035 534.103 635.112 534.025C635.203 533.934 635.313 533.889 635.443 533.889H636.376C636.506 533.889 636.61 533.934 636.687 534.025C636.765 534.103 636.804 534.206 636.804 534.336V543.553C636.804 543.682 636.765 543.793 636.687 543.883C636.61 543.961 636.506 544 636.376 544H635.443ZM635.287 532.003C635.158 532.003 635.048 531.964 634.957 531.886C634.879 531.795 634.84 531.685 634.84 531.556V530.506C634.84 530.376 634.879 530.272 634.957 530.194C635.048 530.104 635.158 530.058 635.287 530.058H636.512C636.642 530.058 636.746 530.104 636.824 530.194C636.914 530.272 636.96 530.376 636.96 530.506V531.556C636.96 531.685 636.914 531.795 636.824 531.886C636.746 531.964 636.642 532.003 636.512 532.003H635.287ZM643.847 544.194C642.861 544.194 642.038 544.006 641.377 543.631C640.716 543.255 640.211 542.736 639.861 542.075C639.511 541.401 639.316 540.636 639.277 539.781C639.264 539.56 639.258 539.281 639.258 538.944C639.258 538.594 639.264 538.316 639.277 538.108C639.316 537.24 639.511 536.475 639.861 535.814C640.223 535.153 640.736 534.634 641.397 534.258C642.058 533.882 642.874 533.694 643.847 533.694C644.819 533.694 645.636 533.882 646.297 534.258C646.958 534.634 647.463 535.153 647.813 535.814C648.176 536.475 648.377 537.24 648.416 538.108C648.429 538.316 648.435 538.594 648.435 538.944C648.435 539.281 648.429 539.56 648.416 539.781C648.377 540.636 648.183 541.401 647.833 542.075C647.483 542.736 646.977 543.255 646.316 543.631C645.655 544.006 644.832 544.194 643.847 544.194ZM643.847 542.697C644.65 542.697 645.292 542.444 645.772 541.939C646.251 541.42 646.511 540.669 646.549 539.683C646.562 539.489 646.569 539.243 646.569 538.944C646.569 538.646 646.562 538.4 646.549 538.206C646.511 537.22 646.251 536.475 645.772 535.969C645.292 535.451 644.65 535.192 643.847 535.192C643.043 535.192 642.395 535.451 641.902 535.969C641.423 536.475 641.17 537.22 641.144 538.206C641.131 538.4 641.124 538.646 641.124 538.944C641.124 539.243 641.131 539.489 641.144 539.683C641.17 540.669 641.423 541.42 641.902 541.939C642.395 542.444 643.043 542.697 643.847 542.697ZM651.318 544C651.188 544 651.078 543.961 650.987 543.883C650.909 543.793 650.87 543.682 650.87 543.553V534.336C650.87 534.206 650.909 534.103 650.987 534.025C651.078 533.934 651.188 533.889 651.318 533.889H652.231C652.361 533.889 652.465 533.934 652.543 534.025C652.633 534.103 652.679 534.206 652.679 534.336V535.192C653.016 534.751 653.437 534.394 653.943 534.122C654.461 533.837 655.122 533.694 655.926 533.694C656.768 533.694 657.481 533.882 658.065 534.258C658.661 534.621 659.108 535.133 659.406 535.794C659.705 536.443 659.854 537.201 659.854 538.069V543.553C659.854 543.682 659.815 543.793 659.737 543.883C659.659 543.961 659.555 544 659.426 544H658.454C658.324 544 658.214 543.961 658.123 543.883C658.045 543.793 658.006 543.682 658.006 543.553V538.167C658.006 537.259 657.786 536.553 657.345 536.047C656.905 535.529 656.256 535.269 655.401 535.269C654.597 535.269 653.949 535.529 653.456 536.047C652.977 536.553 652.737 537.259 652.737 538.167V543.553C652.737 543.682 652.692 543.793 652.601 543.883C652.523 543.961 652.419 544 652.29 544H651.318Z" fill="#6D6D6D"/>
<g clip-path="url(#clip6_853_4172)">
<path d="M580.499 571.508C576.027 571.508 572.397 575.137 572.397 579.61C572.397 584.082 576.027 587.712 580.499 587.712C584.972 587.712 588.601 584.082 588.601 579.61C588.601 575.137 584.972 571.508 580.499 571.508ZM580.499 586.091C576.918 586.091 574.018 583.191 574.018 579.61C574.018 576.029 576.918 573.128 580.499 573.128C584.08 573.128 586.981 576.029 586.981 579.61C586.981 583.191 584.08 586.091 580.499 586.091Z" fill="#AFAFAF"/>
</g>
<path d="M607.905 586.304C606.803 586.304 605.857 586.116 605.066 585.74C604.276 585.351 603.666 584.761 603.239 583.97C602.811 583.167 602.571 582.162 602.519 580.957C602.506 580.386 602.5 579.842 602.5 579.323C602.5 578.792 602.506 578.241 602.519 577.67C602.571 576.478 602.817 575.486 603.258 574.695C603.712 573.892 604.334 573.295 605.125 572.907C605.928 572.505 606.855 572.304 607.905 572.304C608.968 572.304 609.895 572.505 610.686 572.907C611.489 573.295 612.118 573.892 612.572 574.695C613.026 575.486 613.272 576.478 613.311 577.67C613.337 578.241 613.35 578.792 613.35 579.323C613.35 579.842 613.337 580.386 613.311 580.957C613.272 582.162 613.032 583.167 612.591 583.97C612.164 584.761 611.554 585.351 610.764 585.74C609.973 586.116 609.02 586.304 607.905 586.304ZM607.905 584.651C608.903 584.651 609.714 584.353 610.336 583.757C610.971 583.16 611.314 582.195 611.366 580.859C611.392 580.276 611.405 579.758 611.405 579.304C611.405 578.837 611.392 578.319 611.366 577.748C611.34 576.854 611.172 576.128 610.861 575.57C610.563 575.013 610.161 574.605 609.655 574.345C609.15 574.086 608.566 573.957 607.905 573.957C607.27 573.957 606.7 574.086 606.194 574.345C605.689 574.605 605.28 575.013 604.969 575.57C604.671 576.128 604.502 576.854 604.464 577.748C604.451 578.319 604.444 578.837 604.444 579.304C604.444 579.758 604.451 580.276 604.464 580.859C604.515 582.195 604.859 583.16 605.494 583.757C606.129 584.353 606.933 584.651 607.905 584.651ZM616.398 589.804C616.268 589.804 616.158 589.758 616.067 589.668C615.989 589.59 615.951 589.486 615.951 589.357V576.445C615.951 576.316 615.989 576.212 616.067 576.134C616.158 576.044 616.268 575.998 616.398 575.998H617.292C617.422 575.998 617.526 576.044 617.603 576.134C617.694 576.212 617.739 576.316 617.739 576.445V577.301C618.051 576.873 618.465 576.517 618.984 576.232C619.502 575.946 620.151 575.804 620.928 575.804C621.654 575.804 622.27 575.927 622.776 576.173C623.294 576.42 623.715 576.757 624.039 577.184C624.376 577.612 624.629 578.098 624.798 578.643C624.966 579.187 625.057 579.77 625.07 580.393C625.083 580.6 625.089 580.82 625.089 581.054C625.089 581.287 625.083 581.508 625.07 581.715C625.057 582.324 624.966 582.908 624.798 583.465C624.629 584.009 624.376 584.495 624.039 584.923C623.715 585.338 623.294 585.675 622.776 585.934C622.27 586.181 621.654 586.304 620.928 586.304C620.176 586.304 619.541 586.168 619.023 585.895C618.517 585.61 618.102 585.26 617.778 584.845V589.357C617.778 589.486 617.739 589.59 617.662 589.668C617.584 589.758 617.474 589.804 617.331 589.804H616.398ZM620.52 584.729C621.194 584.729 621.719 584.586 622.095 584.301C622.484 584.003 622.763 583.62 622.931 583.154C623.1 582.674 623.197 582.162 623.223 581.618C623.236 581.242 623.236 580.866 623.223 580.49C623.197 579.945 623.1 579.44 622.931 578.973C622.763 578.494 622.484 578.111 622.095 577.826C621.719 577.528 621.194 577.379 620.52 577.379C619.885 577.379 619.366 577.528 618.964 577.826C618.576 578.124 618.284 578.507 618.089 578.973C617.908 579.427 617.804 579.894 617.778 580.373C617.765 580.581 617.759 580.827 617.759 581.112C617.759 581.397 617.765 581.65 617.778 581.87C617.791 582.324 617.895 582.771 618.089 583.212C618.297 583.653 618.601 584.016 619.003 584.301C619.405 584.586 619.911 584.729 620.52 584.729ZM631.347 586.109C630.622 586.109 630.032 585.973 629.578 585.701C629.124 585.416 628.794 585.02 628.586 584.515C628.379 583.996 628.275 583.387 628.275 582.687V577.554H626.759C626.629 577.554 626.519 577.515 626.428 577.437C626.35 577.346 626.311 577.236 626.311 577.107V576.445C626.311 576.316 626.35 576.212 626.428 576.134C626.519 576.044 626.629 575.998 626.759 575.998H628.275V572.751C628.275 572.621 628.314 572.518 628.392 572.44C628.483 572.349 628.593 572.304 628.722 572.304H629.636C629.766 572.304 629.87 572.349 629.947 572.44C630.038 572.518 630.084 572.621 630.084 572.751V575.998H632.495C632.624 575.998 632.728 576.044 632.806 576.134C632.897 576.212 632.942 576.316 632.942 576.445V577.107C632.942 577.236 632.897 577.346 632.806 577.437C632.728 577.515 632.624 577.554 632.495 577.554H630.084V582.551C630.084 583.16 630.187 583.64 630.395 583.99C630.602 584.34 630.972 584.515 631.503 584.515H632.689C632.819 584.515 632.922 584.56 633 584.651C633.091 584.729 633.136 584.833 633.136 584.962V585.662C633.136 585.792 633.091 585.902 633 585.993C632.922 586.07 632.819 586.109 632.689 586.109H631.347ZM635.443 586.109C635.313 586.109 635.203 586.07 635.112 585.993C635.035 585.902 634.996 585.792 634.996 585.662V576.445C634.996 576.316 635.035 576.212 635.112 576.134C635.203 576.044 635.313 575.998 635.443 575.998H636.376C636.506 575.998 636.61 576.044 636.687 576.134C636.765 576.212 636.804 576.316 636.804 576.445V585.662C636.804 585.792 636.765 585.902 636.687 585.993C636.61 586.07 636.506 586.109 636.376 586.109H635.443ZM635.287 574.112C635.158 574.112 635.048 574.073 634.957 573.995C634.879 573.905 634.84 573.795 634.84 573.665V572.615C634.84 572.485 634.879 572.382 634.957 572.304C635.048 572.213 635.158 572.168 635.287 572.168H636.512C636.642 572.168 636.746 572.213 636.824 572.304C636.914 572.382 636.96 572.485 636.96 572.615V573.665C636.96 573.795 636.914 573.905 636.824 573.995C636.746 574.073 636.642 574.112 636.512 574.112H635.287ZM643.847 586.304C642.861 586.304 642.038 586.116 641.377 585.74C640.716 585.364 640.211 584.845 639.861 584.184C639.511 583.51 639.316 582.745 639.277 581.89C639.264 581.67 639.258 581.391 639.258 581.054C639.258 580.704 639.264 580.425 639.277 580.218C639.316 579.349 639.511 578.584 639.861 577.923C640.223 577.262 640.736 576.744 641.397 576.368C642.058 575.992 642.874 575.804 643.847 575.804C644.819 575.804 645.636 575.992 646.297 576.368C646.958 576.744 647.463 577.262 647.813 577.923C648.176 578.584 648.377 579.349 648.416 580.218C648.429 580.425 648.435 580.704 648.435 581.054C648.435 581.391 648.429 581.67 648.416 581.89C648.377 582.745 648.183 583.51 647.833 584.184C647.483 584.845 646.977 585.364 646.316 585.74C645.655 586.116 644.832 586.304 643.847 586.304ZM643.847 584.807C644.65 584.807 645.292 584.554 645.772 584.048C646.251 583.53 646.511 582.778 646.549 581.793C646.562 581.598 646.569 581.352 646.569 581.054C646.569 580.756 646.562 580.509 646.549 580.315C646.511 579.33 646.251 578.584 645.772 578.079C645.292 577.56 644.65 577.301 643.847 577.301C643.043 577.301 642.395 577.56 641.902 578.079C641.423 578.584 641.17 579.33 641.144 580.315C641.131 580.509 641.124 580.756 641.124 581.054C641.124 581.352 641.131 581.598 641.144 581.793C641.17 582.778 641.423 583.53 641.902 584.048C642.395 584.554 643.043 584.807 643.847 584.807ZM651.318 586.109C651.188 586.109 651.078 586.07 650.987 585.993C650.909 585.902 650.87 585.792 650.87 585.662V576.445C650.87 576.316 650.909 576.212 650.987 576.134C651.078 576.044 651.188 575.998 651.318 575.998H652.231C652.361 575.998 652.465 576.044 652.543 576.134C652.633 576.212 652.679 576.316 652.679 576.445V577.301C653.016 576.86 653.437 576.504 653.943 576.232C654.461 575.946 655.122 575.804 655.926 575.804C656.768 575.804 657.481 575.992 658.065 576.368C658.661 576.731 659.108 577.243 659.406 577.904C659.705 578.552 659.854 579.31 659.854 580.179V585.662C659.854 585.792 659.815 585.902 659.737 585.993C659.659 586.07 659.555 586.109 659.426 586.109H658.454C658.324 586.109 658.214 586.07 658.123 585.993C658.045 585.902 658.006 585.792 658.006 585.662V580.276C658.006 579.369 657.786 578.662 657.345 578.157C656.905 577.638 656.256 577.379 655.401 577.379C654.597 577.379 653.949 577.638 653.456 578.157C652.977 578.662 652.737 579.369 652.737 580.276V585.662C652.737 585.792 652.692 585.902 652.601 585.993C652.523 586.07 652.419 586.109 652.29 586.109H651.318Z" fill="#6D6D6D"/>
<g clip-path="url(#clip7_853_4172)">
<path d="M580.499 613.619C576.027 613.619 572.397 617.249 572.397 621.721C572.397 626.193 576.027 629.823 580.499 629.823C584.972 629.823 588.601 626.193 588.601 621.721C588.601 617.249 584.972 613.619 580.499 613.619ZM580.499 628.202C576.918 628.202 574.018 625.302 574.018 621.721C574.018 618.14 576.918 615.24 580.499 615.24C584.08 615.24 586.981 618.14 586.981 621.721C586.981 625.302 584.08 628.202 580.499 628.202Z" fill="#AFAFAF"/>
</g>
<path d="M607.905 628.415C606.803 628.415 605.857 628.227 605.066 627.851C604.276 627.462 603.666 626.873 603.239 626.082C602.811 625.278 602.571 624.273 602.519 623.068C602.506 622.498 602.5 621.953 602.5 621.435C602.5 620.903 602.506 620.352 602.519 619.782C602.571 618.589 602.817 617.598 603.258 616.807C603.712 616.003 604.334 615.407 605.125 615.018C605.928 614.616 606.855 614.415 607.905 614.415C608.968 614.415 609.895 614.616 610.686 615.018C611.489 615.407 612.118 616.003 612.572 616.807C613.026 617.598 613.272 618.589 613.311 619.782C613.337 620.352 613.35 620.903 613.35 621.435C613.35 621.953 613.337 622.498 613.311 623.068C613.272 624.273 613.032 625.278 612.591 626.082C612.164 626.873 611.554 627.462 610.764 627.851C609.973 628.227 609.02 628.415 607.905 628.415ZM607.905 626.762C608.903 626.762 609.714 626.464 610.336 625.868C610.971 625.272 611.314 624.306 611.366 622.971C611.392 622.387 611.405 621.869 611.405 621.415C611.405 620.948 611.392 620.43 611.366 619.86C611.34 618.965 611.172 618.239 610.861 617.682C610.563 617.124 610.161 616.716 609.655 616.457C609.15 616.198 608.566 616.068 607.905 616.068C607.27 616.068 606.7 616.198 606.194 616.457C605.689 616.716 605.28 617.124 604.969 617.682C604.671 618.239 604.502 618.965 604.464 619.86C604.451 620.43 604.444 620.948 604.444 621.415C604.444 621.869 604.451 622.387 604.464 622.971C604.515 624.306 604.859 625.272 605.494 625.868C606.129 626.464 606.933 626.762 607.905 626.762ZM616.398 631.915C616.268 631.915 616.158 631.87 616.067 631.779C615.989 631.701 615.951 631.598 615.951 631.468V618.557C615.951 618.427 615.989 618.323 616.067 618.246C616.158 618.155 616.268 618.11 616.398 618.11H617.292C617.422 618.11 617.526 618.155 617.603 618.246C617.694 618.323 617.739 618.427 617.739 618.557V619.412C618.051 618.985 618.465 618.628 618.984 618.343C619.502 618.058 620.151 617.915 620.928 617.915C621.654 617.915 622.27 618.038 622.776 618.285C623.294 618.531 623.715 618.868 624.039 619.296C624.376 619.723 624.629 620.21 624.798 620.754C624.966 621.298 625.057 621.882 625.07 622.504C625.083 622.711 625.089 622.932 625.089 623.165C625.089 623.398 625.083 623.619 625.07 623.826C625.057 624.436 624.966 625.019 624.798 625.576C624.629 626.121 624.376 626.607 624.039 627.035C623.715 627.449 623.294 627.786 622.776 628.046C622.27 628.292 621.654 628.415 620.928 628.415C620.176 628.415 619.541 628.279 619.023 628.007C618.517 627.722 618.102 627.372 617.778 626.957V631.468C617.778 631.598 617.739 631.701 617.662 631.779C617.584 631.87 617.474 631.915 617.331 631.915H616.398ZM620.52 626.84C621.194 626.84 621.719 626.698 622.095 626.412C622.484 626.114 622.763 625.732 622.931 625.265C623.1 624.786 623.197 624.273 623.223 623.729C623.236 623.353 623.236 622.977 623.223 622.601C623.197 622.057 623.1 621.551 622.931 621.085C622.763 620.605 622.484 620.223 622.095 619.937C621.719 619.639 621.194 619.49 620.52 619.49C619.885 619.49 619.366 619.639 618.964 619.937C618.576 620.236 618.284 620.618 618.089 621.085C617.908 621.538 617.804 622.005 617.778 622.485C617.765 622.692 617.759 622.938 617.759 623.223C617.759 623.509 617.765 623.761 617.778 623.982C617.791 624.436 617.895 624.883 618.089 625.323C618.297 625.764 618.601 626.127 619.003 626.412C619.405 626.698 619.911 626.84 620.52 626.84ZM631.347 628.221C630.622 628.221 630.032 628.085 629.578 627.812C629.124 627.527 628.794 627.132 628.586 626.626C628.379 626.108 628.275 625.498 628.275 624.798V619.665H626.759C626.629 619.665 626.519 619.626 626.428 619.548C626.35 619.458 626.311 619.348 626.311 619.218V618.557C626.311 618.427 626.35 618.323 626.428 618.246C626.519 618.155 626.629 618.11 626.759 618.11H628.275V614.862C628.275 614.733 628.314 614.629 628.392 614.551C628.483 614.461 628.593 614.415 628.722 614.415H629.636C629.766 614.415 629.87 614.461 629.947 614.551C630.038 614.629 630.084 614.733 630.084 614.862V618.11H632.495C632.624 618.11 632.728 618.155 632.806 618.246C632.897 618.323 632.942 618.427 632.942 618.557V619.218C632.942 619.348 632.897 619.458 632.806 619.548C632.728 619.626 632.624 619.665 632.495 619.665H630.084V624.662C630.084 625.272 630.187 625.751 630.395 626.101C630.602 626.451 630.972 626.626 631.503 626.626H632.689C632.819 626.626 632.922 626.672 633 626.762C633.091 626.84 633.136 626.944 633.136 627.073V627.773C633.136 627.903 633.091 628.013 633 628.104C632.922 628.182 632.819 628.221 632.689 628.221H631.347ZM635.443 628.221C635.313 628.221 635.203 628.182 635.112 628.104C635.035 628.013 634.996 627.903 634.996 627.773V618.557C634.996 618.427 635.035 618.323 635.112 618.246C635.203 618.155 635.313 618.11 635.443 618.11H636.376C636.506 618.11 636.61 618.155 636.687 618.246C636.765 618.323 636.804 618.427 636.804 618.557V627.773C636.804 627.903 636.765 628.013 636.687 628.104C636.61 628.182 636.506 628.221 636.376 628.221H635.443ZM635.287 616.223C635.158 616.223 635.048 616.185 634.957 616.107C634.879 616.016 634.84 615.906 634.84 615.776V614.726C634.84 614.597 634.879 614.493 634.957 614.415C635.048 614.324 635.158 614.279 635.287 614.279H636.512C636.642 614.279 636.746 614.324 636.824 614.415C636.914 614.493 636.96 614.597 636.96 614.726V615.776C636.96 615.906 636.914 616.016 636.824 616.107C636.746 616.185 636.642 616.223 636.512 616.223H635.287ZM643.847 628.415C642.861 628.415 642.038 628.227 641.377 627.851C640.716 627.475 640.211 626.957 639.861 626.296C639.511 625.622 639.316 624.857 639.277 624.001C639.264 623.781 639.258 623.502 639.258 623.165C639.258 622.815 639.264 622.536 639.277 622.329C639.316 621.461 639.511 620.696 639.861 620.035C640.223 619.373 640.736 618.855 641.397 618.479C642.058 618.103 642.874 617.915 643.847 617.915C644.819 617.915 645.636 618.103 646.297 618.479C646.958 618.855 647.463 619.373 647.813 620.035C648.176 620.696 648.377 621.461 648.416 622.329C648.429 622.536 648.435 622.815 648.435 623.165C648.435 623.502 648.429 623.781 648.416 624.001C648.377 624.857 648.183 625.622 647.833 626.296C647.483 626.957 646.977 627.475 646.316 627.851C645.655 628.227 644.832 628.415 643.847 628.415ZM643.847 626.918C644.65 626.918 645.292 626.665 645.772 626.16C646.251 625.641 646.511 624.889 646.549 623.904C646.562 623.71 646.569 623.463 646.569 623.165C646.569 622.867 646.562 622.621 646.549 622.426C646.511 621.441 646.251 620.696 645.772 620.19C645.292 619.672 644.65 619.412 643.847 619.412C643.043 619.412 642.395 619.672 641.902 620.19C641.423 620.696 641.17 621.441 641.144 622.426C641.131 622.621 641.124 622.867 641.124 623.165C641.124 623.463 641.131 623.71 641.144 623.904C641.17 624.889 641.423 625.641 641.902 626.16C642.395 626.665 643.043 626.918 643.847 626.918ZM651.318 628.221C651.188 628.221 651.078 628.182 650.987 628.104C650.909 628.013 650.87 627.903 650.87 627.773V618.557C650.87 618.427 650.909 618.323 650.987 618.246C651.078 618.155 651.188 618.11 651.318 618.11H652.231C652.361 618.11 652.465 618.155 652.543 618.246C652.633 618.323 652.679 618.427 652.679 618.557V619.412C653.016 618.972 653.437 618.615 653.943 618.343C654.461 618.058 655.122 617.915 655.926 617.915C656.768 617.915 657.481 618.103 658.065 618.479C658.661 618.842 659.108 619.354 659.406 620.015C659.705 620.663 659.854 621.422 659.854 622.29V627.773C659.854 627.903 659.815 628.013 659.737 628.104C659.659 628.182 659.555 628.221 659.426 628.221H658.454C658.324 628.221 658.214 628.182 658.123 628.104C658.045 628.013 658.006 627.903 658.006 627.773V622.387C658.006 621.48 657.786 620.773 657.345 620.268C656.905 619.749 656.256 619.49 655.401 619.49C654.597 619.49 653.949 619.749 653.456 620.268C652.977 620.773 652.737 621.48 652.737 622.387V627.773C652.737 627.903 652.692 628.013 652.601 628.104C652.523 628.182 652.419 628.221 652.29 628.221H651.318Z" fill="#6D6D6D"/>
</g>
<rect x="570.833" y="1164.55" width="1058.33" height="66.6667" rx="8.33333" fill="#AFAFAF"/>
<path d="M1056.93 1205.61C1055.53 1205.61 1054.32 1205.38 1053.31 1204.92C1052.32 1204.46 1051.54 1203.79 1050.98 1202.9C1050.43 1202.01 1050.13 1200.91 1050.07 1199.59C1050.05 1198.98 1050.04 1198.33 1050.04 1197.63C1050.04 1196.94 1050.05 1196.27 1050.07 1195.63C1050.13 1194.34 1050.44 1193.26 1051 1192.37C1051.56 1191.46 1052.35 1190.78 1053.36 1190.32C1054.36 1189.85 1055.56 1189.61 1056.93 1189.61C1057.91 1189.61 1058.81 1189.74 1059.64 1189.99C1060.47 1190.23 1061.2 1190.58 1061.82 1191.06C1062.44 1191.51 1062.93 1192.08 1063.27 1192.74C1063.62 1193.4 1063.81 1194.14 1063.82 1194.97C1063.84 1195.1 1063.79 1195.21 1063.69 1195.3C1063.6 1195.39 1063.49 1195.43 1063.36 1195.43H1060.36C1060.16 1195.43 1060.01 1195.4 1059.91 1195.32C1059.81 1195.23 1059.72 1195.08 1059.64 1194.86C1059.44 1194.07 1059.1 1193.54 1058.62 1193.26C1058.16 1192.96 1057.59 1192.81 1056.91 1192.81C1056.1 1192.81 1055.45 1193.04 1054.98 1193.5C1054.5 1193.94 1054.24 1194.69 1054.2 1195.74C1054.16 1196.96 1054.16 1198.2 1054.2 1199.48C1054.24 1200.53 1054.5 1201.28 1054.98 1201.74C1055.45 1202.19 1056.1 1202.41 1056.91 1202.41C1057.59 1202.41 1058.17 1202.26 1058.64 1201.97C1059.12 1201.67 1059.45 1201.14 1059.64 1200.37C1059.7 1200.14 1059.79 1200 1059.89 1199.92C1060.01 1199.83 1060.16 1199.79 1060.36 1199.79H1063.36C1063.49 1199.79 1063.6 1199.83 1063.69 1199.92C1063.79 1200.01 1063.84 1200.12 1063.82 1200.26C1063.81 1201.08 1063.62 1201.83 1063.27 1202.5C1062.93 1203.15 1062.44 1203.71 1061.82 1204.19C1061.2 1204.65 1060.47 1205 1059.64 1205.26C1058.81 1205.49 1057.91 1205.61 1056.93 1205.61ZM1071.38 1205.61C1070.14 1205.61 1069.08 1205.41 1068.23 1205.01C1067.38 1204.61 1066.73 1204.04 1066.27 1203.3C1065.83 1202.54 1065.57 1201.65 1065.51 1200.61C1065.5 1200.31 1065.49 1199.98 1065.49 1199.61C1065.49 1199.23 1065.5 1198.89 1065.51 1198.61C1065.57 1197.56 1065.84 1196.66 1066.31 1195.92C1066.79 1195.18 1067.45 1194.61 1068.29 1194.21C1069.15 1193.81 1070.18 1193.61 1071.38 1193.61C1072.6 1193.61 1073.63 1193.81 1074.47 1194.21C1075.33 1194.61 1076 1195.18 1076.47 1195.92C1076.94 1196.66 1077.21 1197.56 1077.27 1198.61C1077.28 1198.89 1077.29 1199.23 1077.29 1199.61C1077.29 1199.98 1077.28 1200.31 1077.27 1200.61C1077.21 1201.65 1076.95 1202.54 1076.49 1203.3C1076.05 1204.04 1075.4 1204.61 1074.54 1205.01C1073.69 1205.41 1072.64 1205.61 1071.38 1205.61ZM1071.38 1202.9C1072.05 1202.9 1072.53 1202.7 1072.83 1202.3C1073.14 1201.9 1073.31 1201.3 1073.36 1200.5C1073.37 1200.28 1073.38 1199.98 1073.38 1199.61C1073.38 1199.24 1073.37 1198.94 1073.36 1198.72C1073.31 1197.94 1073.14 1197.34 1072.83 1196.94C1072.53 1196.53 1072.05 1196.32 1071.38 1196.32C1070.73 1196.32 1070.25 1196.53 1069.94 1196.94C1069.63 1197.34 1069.46 1197.94 1069.43 1198.72C1069.41 1198.94 1069.4 1199.24 1069.4 1199.61C1069.4 1199.98 1069.41 1200.28 1069.43 1200.5C1069.46 1201.3 1069.63 1201.9 1069.94 1202.3C1070.25 1202.7 1070.73 1202.9 1071.38 1202.9ZM1080.03 1205.39C1079.87 1205.39 1079.74 1205.34 1079.63 1205.23C1079.53 1205.13 1079.48 1205 1079.48 1204.83V1194.39C1079.48 1194.23 1079.53 1194.09 1079.63 1193.99C1079.74 1193.88 1079.87 1193.83 1080.03 1193.83H1082.59C1082.75 1193.83 1082.89 1193.88 1082.99 1193.99C1083.09 1194.09 1083.14 1194.23 1083.14 1194.39V1195.23C1083.53 1194.77 1084.03 1194.39 1084.66 1194.08C1085.28 1193.77 1086.01 1193.61 1086.86 1193.61C1087.71 1193.61 1088.47 1193.8 1089.12 1194.19C1089.79 1194.57 1090.31 1195.14 1090.68 1195.9C1091.06 1196.64 1091.26 1197.55 1091.26 1198.63V1204.83C1091.26 1205 1091.2 1205.13 1091.08 1205.23C1090.97 1205.34 1090.85 1205.39 1090.7 1205.39H1087.9C1087.75 1205.39 1087.62 1205.34 1087.5 1205.23C1087.4 1205.13 1087.34 1205 1087.34 1204.83V1198.77C1087.34 1198.07 1087.17 1197.54 1086.83 1197.17C1086.51 1196.78 1086.02 1196.59 1085.37 1196.59C1084.76 1196.59 1084.27 1196.78 1083.9 1197.17C1083.54 1197.54 1083.37 1198.07 1083.37 1198.77V1204.83C1083.37 1205 1083.31 1205.13 1083.19 1205.23C1083.09 1205.34 1082.96 1205.39 1082.81 1205.39H1080.03ZM1099.54 1205.39C1098.59 1205.39 1097.77 1205.24 1097.07 1204.94C1096.39 1204.63 1095.86 1204.16 1095.49 1203.52C1095.12 1202.87 1094.94 1202.03 1094.94 1201.01V1196.74H1093.2C1093.04 1196.74 1092.9 1196.69 1092.78 1196.59C1092.68 1196.48 1092.63 1196.35 1092.63 1196.19V1194.39C1092.63 1194.23 1092.68 1194.09 1092.78 1193.99C1092.9 1193.88 1093.04 1193.83 1093.2 1193.83H1094.94V1190.17C1094.94 1190 1094.99 1189.87 1095.09 1189.77C1095.21 1189.66 1095.35 1189.61 1095.49 1189.61H1098.07C1098.23 1189.61 1098.37 1189.66 1098.47 1189.77C1098.58 1189.87 1098.63 1190 1098.63 1190.17V1193.83H1101.4C1101.57 1193.83 1101.7 1193.88 1101.8 1193.99C1101.91 1194.09 1101.96 1194.23 1101.96 1194.39V1196.19C1101.96 1196.35 1101.91 1196.48 1101.8 1196.59C1101.7 1196.69 1101.57 1196.74 1101.4 1196.74H1098.63V1200.7C1098.63 1201.2 1098.72 1201.6 1098.92 1201.9C1099.11 1202.2 1099.43 1202.34 1099.89 1202.34H1101.6C1101.77 1202.34 1101.9 1202.4 1102 1202.5C1102.11 1202.6 1102.16 1202.74 1102.16 1202.9V1204.83C1102.16 1205 1102.11 1205.13 1102 1205.23C1101.9 1205.34 1101.77 1205.39 1101.6 1205.39H1099.54ZM1104.56 1205.39C1104.39 1205.39 1104.26 1205.34 1104.16 1205.23C1104.05 1205.13 1104 1205 1104 1204.83V1194.39C1104 1194.23 1104.05 1194.09 1104.16 1193.99C1104.26 1193.88 1104.39 1193.83 1104.56 1193.83H1107.18C1107.33 1193.83 1107.45 1193.88 1107.56 1193.99C1107.67 1194.09 1107.73 1194.23 1107.73 1194.39V1204.83C1107.73 1205 1107.67 1205.13 1107.56 1205.23C1107.45 1205.34 1107.33 1205.39 1107.18 1205.39H1104.56ZM1104.53 1192.17C1104.37 1192.17 1104.24 1192.11 1104.13 1192.01C1104.03 1191.91 1103.98 1191.77 1103.98 1191.61V1189.63C1103.98 1189.47 1104.03 1189.34 1104.13 1189.23C1104.24 1189.11 1104.37 1189.06 1104.53 1189.06H1107.18C1107.34 1189.06 1107.47 1189.11 1107.58 1189.23C1107.7 1189.34 1107.76 1189.47 1107.76 1189.63V1191.61C1107.76 1191.77 1107.7 1191.91 1107.58 1192.01C1107.47 1192.11 1107.34 1192.17 1107.18 1192.17H1104.53ZM1110.89 1205.39C1110.73 1205.39 1110.6 1205.34 1110.49 1205.23C1110.39 1205.13 1110.34 1205 1110.34 1204.83V1194.39C1110.34 1194.23 1110.39 1194.09 1110.49 1193.99C1110.6 1193.88 1110.73 1193.83 1110.89 1193.83H1113.45C1113.61 1193.83 1113.74 1193.88 1113.85 1193.99C1113.95 1194.09 1114 1194.23 1114 1194.39V1195.23C1114.39 1194.77 1114.89 1194.39 1115.51 1194.08C1116.14 1193.77 1116.87 1193.61 1117.71 1193.61C1118.57 1193.61 1119.33 1193.8 1119.98 1194.19C1120.65 1194.57 1121.17 1195.14 1121.54 1195.9C1121.92 1196.64 1122.11 1197.55 1122.11 1198.63V1204.83C1122.11 1205 1122.06 1205.13 1121.94 1205.23C1121.83 1205.34 1121.71 1205.39 1121.56 1205.39H1118.76C1118.61 1205.39 1118.48 1205.34 1118.36 1205.23C1118.26 1205.13 1118.2 1205 1118.2 1204.83V1198.77C1118.2 1198.07 1118.03 1197.54 1117.69 1197.17C1117.37 1196.78 1116.88 1196.59 1116.23 1196.59C1115.62 1196.59 1115.13 1196.78 1114.76 1197.17C1114.4 1197.54 1114.23 1198.07 1114.23 1198.77V1204.83C1114.23 1205 1114.17 1205.13 1114.05 1205.23C1113.94 1205.34 1113.82 1205.39 1113.67 1205.39H1110.89ZM1128.84 1205.61C1127.99 1205.61 1127.24 1205.42 1126.57 1205.03C1125.92 1204.65 1125.41 1204.08 1125.04 1203.34C1124.67 1202.59 1124.48 1201.67 1124.48 1200.59V1194.39C1124.48 1194.23 1124.54 1194.09 1124.64 1193.99C1124.74 1193.88 1124.88 1193.83 1125.04 1193.83H1127.82C1127.98 1193.83 1128.11 1193.88 1128.22 1193.99C1128.32 1194.09 1128.37 1194.23 1128.37 1194.39V1200.46C1128.37 1201.91 1129.02 1202.63 1130.33 1202.63C1130.94 1202.63 1131.42 1202.45 1131.77 1202.08C1132.14 1201.69 1132.33 1201.15 1132.33 1200.46V1194.39C1132.33 1194.23 1132.38 1194.09 1132.48 1193.99C1132.59 1193.88 1132.72 1193.83 1132.88 1193.83H1135.66C1135.82 1193.83 1135.96 1193.88 1136.06 1193.99C1136.17 1194.09 1136.22 1194.23 1136.22 1194.39V1204.83C1136.22 1205 1136.17 1205.13 1136.06 1205.23C1135.96 1205.34 1135.82 1205.39 1135.66 1205.39H1133.08C1132.94 1205.39 1132.8 1205.34 1132.68 1205.23C1132.58 1205.13 1132.53 1205 1132.53 1204.83V1203.99C1132.14 1204.52 1131.64 1204.93 1131.02 1205.21C1130.41 1205.48 1129.68 1205.61 1128.84 1205.61ZM1144.16 1205.61C1142.42 1205.61 1141.02 1205.14 1139.99 1204.19C1138.95 1203.24 1138.41 1201.83 1138.36 1199.97C1138.36 1199.86 1138.36 1199.73 1138.36 1199.57C1138.36 1199.4 1138.36 1199.28 1138.36 1199.19C1138.41 1198.02 1138.67 1197.02 1139.14 1196.19C1139.63 1195.34 1140.3 1194.71 1141.14 1194.28C1142 1193.83 1143 1193.61 1144.14 1193.61C1145.45 1193.61 1146.52 1193.87 1147.36 1194.39C1148.22 1194.91 1148.87 1195.61 1149.3 1196.5C1149.73 1197.39 1149.94 1198.4 1149.94 1199.54V1200.08C1149.94 1200.24 1149.88 1200.37 1149.76 1200.48C1149.66 1200.58 1149.53 1200.63 1149.39 1200.63H1142.28C1142.28 1200.65 1142.28 1200.67 1142.28 1200.7C1142.28 1200.73 1142.28 1200.76 1142.28 1200.79C1142.29 1201.22 1142.36 1201.61 1142.5 1201.97C1142.63 1202.32 1142.84 1202.6 1143.12 1202.81C1143.4 1203.02 1143.74 1203.12 1144.14 1203.12C1144.44 1203.12 1144.68 1203.08 1144.88 1202.99C1145.08 1202.88 1145.25 1202.77 1145.39 1202.66C1145.52 1202.52 1145.62 1202.41 1145.7 1202.32C1145.83 1202.17 1145.93 1202.08 1146.01 1202.06C1146.1 1202.01 1146.23 1201.99 1146.41 1201.99H1149.16C1149.31 1201.99 1149.43 1202.03 1149.52 1202.12C1149.62 1202.2 1149.67 1202.31 1149.65 1202.46C1149.64 1202.71 1149.51 1203.01 1149.28 1203.37C1149.04 1203.72 1148.69 1204.08 1148.23 1204.43C1147.79 1204.77 1147.22 1205.06 1146.54 1205.28C1145.86 1205.5 1145.07 1205.61 1144.16 1205.61ZM1142.28 1198.43H1146.03V1198.39C1146.03 1197.91 1145.96 1197.5 1145.81 1197.14C1145.68 1196.79 1145.46 1196.51 1145.16 1196.32C1144.88 1196.13 1144.54 1196.03 1144.14 1196.03C1143.74 1196.03 1143.4 1196.13 1143.12 1196.32C1142.85 1196.51 1142.65 1196.79 1142.5 1197.14C1142.35 1197.5 1142.28 1197.91 1142.28 1198.39V1198.43Z" fill="white"/>
<defs>
<clipPath id="clip0_853_4172">
<rect width="1058.44" height="283.667" fill="white" transform="translate(570.777 353.555)"/>
</clipPath>
<clipPath id="clip1_853_4172">
<rect width="19.4444" height="19.4444" fill="white" transform="translate(570.777 359.332)"/>
</clipPath>
<clipPath id="clip2_853_4172">
<rect width="19.4444" height="19.4444" fill="white" transform="translate(570.777 401.443)"/>
</clipPath>
<clipPath id="clip3_853_4172">
<rect width="19.4444" height="19.4444" fill="white" transform="translate(570.777 443.555)"/>
</clipPath>
<clipPath id="clip4_853_4172">
<rect width="19.4444" height="19.4444" fill="white" transform="translate(570.777 485.666)"/>
</clipPath>
<clipPath id="clip5_853_4172">
<rect width="19.4444" height="19.4444" fill="white" transform="translate(570.777 527.777)"/>
</clipPath>
<clipPath id="clip6_853_4172">
<rect width="19.4444" height="19.4444" fill="white" transform="translate(570.777 569.887)"/>
</clipPath>
<clipPath id="clip7_853_4172">
<rect width="19.4444" height="19.4444" fill="white" transform="translate(570.777 611.998)"/>
</clipPath>
</defs>
</svg>
